<?xml version="1.0" encoding="UTF-8" standalone="no"?>
<svg
   xmlns:dc="http://purl.org/dc/elements/1.1/"
   xmlns:cc="http://creativecommons.org/ns#"
   xmlns:rdf="http://www.w3.org/1999/02/22-rdf-syntax-ns#"
   xmlns:svg="http://www.w3.org/2000/svg"
   xmlns="http://www.w3.org/2000/svg"
   viewBox="0 0 313.75595 140.75063"
   height="140.75063"
   width="313.75595"
   id="svg4518"
   version="1.1">
  <metadata
     id="metadata4524">
    <rdf:RDF>
      <cc:Work
         rdf:about="">
        <dc:format>image/svg+xml</dc:format>
        <dc:type
           rdf:resource="http://purl.org/dc/dcmitype/StillImage" />
        <dc:title></dc:title>
      </cc:Work>
    </rdf:RDF>
  </metadata>
  <defs
     id="defs4522" />
  <path
     id="path4528"
     d="m 24.155947,137.35063 c -4.45393,-4.45393 -4.54651,-8.98618 -0.35492,-17.3743 3.89694,-7.79847 11.92632,-15.25566 23.25366,-21.596549 l 8.70126,-4.87086 v -11.11368 -11.11368 l -2.25,4.20402 c -5.23758,9.78615 -14.20153,15.74607 -25.3359,16.84524 C 12.555227,93.872301 1.5051571,82.801601 0.14217706,64.250631 -1.1319629,46.908841 6.2794671,25.481031 17.482997,14.115161 27.065337,4.3939612 42.159837,-1.3442388 53.901377,0.27063117 66.272447,1.9720912 73.196767,13.697391 68.132657,24.369191 c -4.08398,8.60637 -15.46091,10.74931 -20.04494,3.77565 -1.18741,-1.8064 -1.17546,-2.27904 0.084,-3.32431 1.19614,-0.99271 1.88302,-0.74146 3.70656,1.35579 7.14355,8.21581 16.90488,-5.30856 10.91814,-15.12714 -2.69753,-4.4240998 -7.42715,-6.6891098 -14.05447,-6.7306498 -10.34176,-0.0648 -19.15163,7.5062398 -27.52952,23.6584398 -5.67131,10.93407 -8.45648,21.55639 -8.45648,32.25212 0,21.9744 10.86884,33.33363 25.5,26.65053 5.00807,-2.28755 11.58993,-9.3662 14.09232,-15.15598 3.81267,-8.82138 5.9606,-12.39447 8.6115,-14.32524 2.34474,-1.70778 2.92739,-1.78376 4.38729,-0.57215 1.4995,1.24447 1.60791,3.01991 0.99203,16.24607 l -0.69146,14.84892 4.30416,-2.96256 c 6.59935,-4.54234 13.80416,-12.70646 13.80416,-15.64216 0,-1.60647 0.93708,-3.13378 2.58534,-4.21377 3.81883,-2.50219 4.60599,-0.52252 3.85847,9.70381 -0.75534,10.33339 0.63924,16.94407 3.57451,16.94407 2.50248,0 7.103293,-7.92911 10.507383,-18.10859 2.99845,-8.96651 6.06468,-12.46202 10.05339,-11.46092 2.63001,0.66009 2.67529,0.80179 2.03634,6.37231 -2.1138,18.42857 -1.88015,40.197199 0.43145,40.197199 1.19147,0 5.48555,-8.54771 11.49578,-22.883259 l 4.77247,-11.38326 -3.05202,-5.61674 c -1.67861,-3.08921 -3.352,-7.04158 -3.71864,-8.78306 -0.99439,-4.72314 1.03375,-10.80099 4.60775,-13.80831 2.61958,-2.20423 3.92225,-2.57335 8.1983,-2.32301 4.31889,0.25286 5.3092,0.70063 6.58156,2.97586 1.28047,2.28972 1.31325,3.57135 0.22603,8.83518 -0.69944,3.38632 -1.98349,7.64958 -2.85344,9.47389 -1.57646,3.30587 -1.56553,3.34253 3.27259,10.97995 5.52512,8.72192 4.657,8.9088 11.46129,-2.46724 3.25793,-5.44691 4.13679,-8.15957 5.42463,-16.74342 2.15624,-14.37202 2.23809,-13.87407 -2.21318,-13.46378 -5.31173,0.4896 -11.39154,-1.77972 -13.14265,-4.90557 -2.00848,-3.58528 0.0311,-8.88723 3.41881,-8.88723 2.06903,0 2.23539,0.35891 1.77103,3.82092 -0.73894,5.50922 1.59266,7.60309 7.55614,6.78571 2.46874,-0.33838 4.63933,-0.76596 4.82354,-0.95017 0.18421,-0.18421 1.23525,-5.23525 2.33563,-11.22452 2.24072,-12.19594 4.0047,-15.14641 8.39652,-14.04413 3.17723,0.79743 3.21186,1.76453 0.48697,13.59931 -1.15721,5.026 -1.86665,9.37555 -1.57653,9.66567 0.29011,0.29011 7.19942,-1.74216 15.35401,-4.51616 17.72942,-6.03113 25.39381,-7.60855 32.59621,-6.70867 9.43201,1.17845 16.17508,7.10573 13.86117,12.18421 -0.71865,1.57726 -1.80608,2.40444 -2.88721,2.19623 -1.35232,-0.26043 -1.66303,-1.16196 -1.41053,-4.09272 0.31209,-3.62243 0.15106,-3.83514 -4.4412,-5.86652 -6.81942,-3.01655 -17.86124,-2.20587 -29.39191,2.15794 -4.675,1.76926 -12.04606,4.48502 -16.38013,6.035 -4.33408,1.54999 -8.2222,3.18711 -8.64028,3.63803 -0.41808,0.45093 -1.46668,5.09487 -2.33021,10.31987 -4.18045,25.29463 -4.83768,51.240279 -1.38542,54.692529 1.61899,1.61899 1.86765,1.59991 4.47514,-0.34346 4.22226,-3.14686 11.75532,-14.787649 16.40404,-25.349069 2.29984,-5.225 4.89598,-10.04819 5.76919,-10.7182 3.56538,-2.73566 3.91511,-1.65972 3.4027,10.4682 -0.48233,11.41594 -0.41568,11.90637 2.34427,17.25 6.32434,12.244819 13.6786,9.518429 17.65294,-6.54434 3.12908,-12.64654 3.2148,-12.12437 -2.11169,-12.86254 -6.05414,-0.839 -13.31303,-4.55827 -15.10431,-7.73905 -4.12383,-7.32268 7.99709,-18.80435 17.36832,-16.45232 3.6477,0.91551 4.73379,3.88638 4.83576,13.22772 0.0905,8.29137 0.11553,8.37032 2.64553,8.34857 2.50944,-0.0216 11.05415,-3.40435 11.05415,-4.37623 0,-0.27279 -1.161,-2.65729 -2.58001,-5.2989 -2.18378,-4.0653 -2.52076,-5.78301 -2.19421,-11.18479 0.34391,-5.68896 0.73433,-6.69328 3.59579,-9.25 2.59477,-2.31842 4.13554,-2.86812 8.03922,-2.86812 6.02641,0 8.13921,2.0204 8.13921,7.78325 0,2.26918 -1.08586,7.11728 -2.41302,10.77357 l -2.41302,6.6478 4.83013,7.39902 c 2.65657,4.06946 5.02938,7.96092 5.27291,8.64769 0.76775,2.16509 5.91036,-2.37564 10.223,-9.02652 5.76461,-8.89008 7.86338,-8.30869 6.23215,1.72638 -1.82512,11.22786 0.68565,21.69824 6.34513,26.460379 5.39129,4.53648 9.47635,1.66652 12.84639,-9.025209 1.95369,-6.19824 4.66813,-22.1279 3.9013,-22.89473 -0.23006,-0.23006 -2.60631,0.24021 -5.28056,1.04504 -9.69253,2.91702 -15.54762,1.09224 -15.54067,-4.84337 0.008,-6.87349 7.62877,-13.6933 15.30143,-13.6933 4.38973,0 6.51753,2.42734 7.33113,8.36315 l 0.64653,4.71698 4.24422,-0.63646 c 4.65341,-0.69782 8.47295,0.70836 8.47295,3.11936 0,1.23236 -1.08996,1.38146 -6.25,0.855 l -6.25,-0.63766 -1.68757,12.17783 c -3.53418,25.503269 -12.80657,34.269409 -24.79357,23.439879 -4.59668,-4.15283 -7.01886,-10.471369 -7.01886,-18.309549 v -5.5552 l -3.58732,3.58732 c -3.44529,3.44529 -3.54449,3.74158 -2.50558,7.48334 4.66897,16.815769 -7.18077,35.304959 -20.48665,31.965399 -10.26272,-2.57578 -9.53351,-16.47223 1.3308,-25.361039 2.49289,-2.03959 5.70617,-4.69414 7.14064,-5.899 l 2.60811,-2.19066 -2.79226,-5.30934 c -1.53575,-2.92014 -4.0743,-6.80872 -5.64123,-8.64128 -2.74223,-3.20711 -2.95606,-3.27769 -5.70773,-1.88419 -1.57233,0.79626 -5.16598,1.98974 -7.98589,2.65219 l -5.1271,1.20445 -1.71536,8.63734 c -3.05169,15.366189 -7.42283,21.722139 -14.93884,21.722139 -7.94453,0 -15.59159,-9.06818 -15.59159,-18.489099 0,-2.206 -0.3375,-4.00605 -0.75,-4.00012 -0.4125,0.006 -2.55,3.45835 -4.75,7.67204 -4.87546,9.338029 -13.94305,19.324049 -17.52664,19.301869 -3.27983,-0.0203 -4.33503,-0.81921 -6.58383,-4.98469 -1.63659,-3.03147 -1.88953,-5.72552 -1.88953,-20.125119 v -16.62511 l -4.36567,6.62511 c -4.24697,6.44499 -4.3368,6.74747 -3.30368,11.12512 2.07313,8.78457 2.2037,10.561879 1.17551,15.999999 -2.69323,14.24456 -15.97513,23.53185 -24.29452,16.98781 -6.35046,-4.99527 -4.33407,-12.39601 6.44358,-23.64989 4.31463,-4.505269 7.84478,-8.508759 7.84478,-8.896629 0,-0.93252 -3.76244,-7.11151 -6.83276,-11.22131 l -2.45041,-3.28001 -5.20581,12.28001 c -9.39938,22.172239 -12.58488,27.456379 -15.80657,26.220099 -3.55299,-1.36341 -6.59795,-16.527859 -6.71464,-33.440079 l -0.0448,-6.5 -3.80759,8 c -5.993333,12.59238 -10.562703,16.948289 -15.184263,14.47491 -2.79084,-1.49362 -4.64495,-6.12899 -5.51005,-13.77541 l -0.70309,-6.21453 -4.2362,3.90479 c -2.32991,2.14764 -6.10412,5.14093 -8.38713,6.65175 -2.28302,1.51083 -4.32798,3.69455 -4.54436,4.85272 -3.54906,18.996339 -7.90436,29.525459 -15.77531,38.137539 -6.17384,6.75511 -11.14752,9.46823 -17.35718,9.46823 -3.94335,0 -5.15022,-0.51038 -8.03984,-3.4 z m 10.88212,-0.94713 c 7.10967,-2.97638 16.00128,-17.05188 18.60513,-29.45209 2.04536,-9.740549 1.98496,-9.814109 -4.94174,-6.01847 -13.78182,7.55205 -23.50252,18.09606 -24.66359,26.75251 -0.42377,3.1594 -0.11535,4.59477 1.3334,6.20565 1.51592,1.68556 4.24201,3.36368 6.1668,3.79614 0.15516,0.0349 1.73016,-0.54282 3.5,-1.28374 z M 140.99424,120.77783 c 3.98234,-3.1325 5.76171,-8.02635 5.76171,-15.84654 0,-10.979089 -0.32345,-11.157769 -7.36822,-4.07019 -3.37248,3.39296 -6.91631,7.34364 -7.87519,8.77928 -5.35139,8.01215 2.19135,16.87204 9.4817,11.13745 z m 107.4909,-0.64074 c 2.57336,-1.62226 4.71838,-5.44061 5.75263,-10.24026 0.87674,-4.06871 -0.25109,-14.146199 -1.58319,-14.146199 -1.90848,0 -11.45319,8.290719 -13.64351,11.851019 -3.52064,5.7227 -2.67397,12.70898 1.74488,14.3978 1.84431,0.70487 4.77823,-0.002 7.72919,-1.86236 z M 222.75595,68.941761 c 0,-9.52715 -1.20409,-11.74449 -5.82634,-10.72927 -3.9386,0.86506 -9.17366,5.9397 -9.17366,8.89256 0,4.81521 5.99619,9.51743 12.25,9.60644 l 2.75,0.03914 z m 74.24369,0.67845 c 1.64778,-0.88187 1.89932,-1.76669 1.45146,-5.10574 -0.99977,-7.45382 -5.17662,-8.59537 -11.61808,-3.17524 -3.53153,2.97159 -4.19089,7.63217 -1.32707,9.38018 1.93409,1.18053 8.38711,0.56339 11.49369,-1.0992 z M 142.29471,58.245521 c 1.39094,-5.13857 1.52624,-7.05681 0.63561,-9.01154 -2.21936,-4.87096 -7.36427,-2.01813 -7.52662,4.17349 -0.10803,4.11982 3.04877,12.64876 4.37766,11.82745 0.41044,-0.25366 1.54144,-3.39889 2.51335,-6.9894 z m 106.86724,1.82697 c 3.42923,-10.06423 0.86734,-16.59417 -4.57726,-11.66687 -1.17263,1.06122 -1.82874,3.04601 -1.82874,5.53212 0,4.2516 2.33921,10.81289 3.85497,10.81289 0.52636,0 1.67433,-2.10516 2.55103,-4.67814 z"
     style="fill:#000000" />
</svg>
