<?xml version="1.0" encoding="UTF-8" standalone="no"?>
<!-- Created with Inkscape (http://www.inkscape.org/) -->

<svg
   xmlns:dc="http://purl.org/dc/elements/1.1/"
   xmlns:cc="http://creativecommons.org/ns#"
   xmlns:rdf="http://www.w3.org/1999/02/22-rdf-syntax-ns#"
   xmlns:svg="http://www.w3.org/2000/svg"
   xmlns="http://www.w3.org/2000/svg"
   xmlns:sodipodi="http://sodipodi.sourceforge.net/DTD/sodipodi-0.dtd"
   xmlns:inkscape="http://www.inkscape.org/namespaces/inkscape"
   width="66.050568mm"
   height="15.03074mm"
   viewBox="0 0 66.050567 15.03074"
   version="1.1"
   id="svg8"
   inkscape:version="0.92.4 (5da689c313, 2019-01-14)"
   sodipodi:docname="pretsel.svg">
  <defs
     id="defs2" />
  <sodipodi:namedview
     id="base"
     pagecolor="#ffffff"
     bordercolor="#666666"
     borderopacity="1.0"
     inkscape:pageopacity="0.0"
     inkscape:pageshadow="2"
     inkscape:zoom="0.98994949"
     inkscape:cx="203.8951"
     inkscape:cy="-74.736293"
     inkscape:document-units="mm"
     inkscape:current-layer="layer1"
     showgrid="false"
     fit-margin-top="0"
     fit-margin-left="0"
     fit-margin-right="0"
     fit-margin-bottom="0"
     inkscape:window-width="1920"
     inkscape:window-height="1001"
     inkscape:window-x="-9"
     inkscape:window-y="-9"
     inkscape:window-maximized="1" />
  <metadata
     id="metadata5">
    <rdf:RDF>
      <cc:Work
         rdf:about="">
        <dc:format>image/svg+xml</dc:format>
        <dc:type
           rdf:resource="http://purl.org/dc/dcmitype/StillImage" />
        <dc:title></dc:title>
      </cc:Work>
    </rdf:RDF>
  </metadata>
  <g
     inkscape:label="Layer 1"
     inkscape:groupmode="layer"
     id="layer1"
     transform="translate(23.037908,-215.29531)">
    <path
       style="fill:none;fill-opacity:0.31372549;stroke:#000000;stroke-width:0.15832524;stroke-miterlimit:4;stroke-dasharray:none;stroke-opacity:0.31343288"
       d="m 7.8682802,227.89921 c -0.1545231,-0.039 -0.3731029,-0.16233 -0.4912483,-0.27716 -0.2333464,-0.22678 -0.337407,-0.47907 -0.3385017,-0.82068 l -7.045e-4,-0.21568 -0.2510659,-0.15943 c -1.1938617,-0.75811 -2.0641876,-1.98628 -2.4125372,-3.40449 -0.094832,-0.38609 -0.1341008,-0.71985 -0.1345969,-1.14401 -4.97e-4,-0.43391 0.024794,-0.66112 0.1124692,-1.01001 0.2829658,-1.12604 1.084993,-2.01039 2.1183629,-2.33582 0.6406846,-0.20176 1.4083037,-0.17529 2.0915725,0.0721 0.446284,0.1616 0.8260646,0.39106 1.344751,0.81248 l 0.079825,0.0648 0.079825,-0.0648 c 0.403355,-0.32772 0.631019,-0.48033 0.970101,-0.65031 0.750376,-0.37616 1.64284,-0.47213 2.388708,-0.25688 0.933091,0.26927 1.678921,0.96862 2.062331,1.9338 0.08864,0.22314 0.184751,0.5973 0.220248,0.85743 0.03726,0.2731 0.03165,0.91772 -0.01058,1.21483 -0.225514,1.58644 -1.164926,3.05083 -2.508839,3.91087 l -0.249125,0.15943 -0.0091,0.25789 c -0.0083,0.23561 -0.01674,0.27396 -0.09751,0.44371 -0.201076,0.42258 -0.610762,0.66289 -1.074911,0.63052 -0.215956,-0.0151 -0.353439,-0.063 -0.54306,-0.1892 -0.116354,-0.0775 -0.34384,-0.33232 -0.371985,-0.41676 -0.0068,-0.0204 -0.08931,-0.0202 -0.315979,7.6e-4 -0.291686,0.027 -1.0180073,0.0174 -1.2769691,-0.0168 -0.1082119,-0.0143 -0.1115556,-0.0127 -0.1596502,0.0785 -0.08742,0.16564 -0.288389,0.34706 -0.4911165,0.44333 -0.1660188,0.0788 -0.2135929,0.09 -0.4131713,0.0969 -0.124052,0.005 -0.2669515,-0.002 -0.3175534,-0.0154 z m 0.45741,-0.52095 c 0.152102,-0.0455 0.3208957,-0.22195 0.3690432,-0.38562 0.021582,-0.0734 0.03924,-0.16967 0.03924,-0.21398 0,-0.0443 0.021719,-0.24954 0.048255,-0.45607 0.1345742,-1.04727 0.3999818,-2.09772 0.766879,-3.03522 0.1320713,-0.33746 0.1442032,-0.38334 0.1198529,-0.45319 -0.067231,-0.19285 -0.63321,-1.14855 -0.6801917,-1.14855 -0.00697,0 -0.08947,0.15997 -0.1832656,0.35548 -0.5550481,1.15696 -0.9565859,2.50977 -1.1649169,3.92469 -0.084289,0.57245 -0.1029933,0.95928 -0.052096,1.07746 0.1234649,0.28665 0.4314522,0.42661 0.7372001,0.335 z m 0.1162501,-2.85319 c -0.08374,-0.0464 -0.1236399,-0.13215 -0.1246414,-0.26782 -0.00152,-0.20709 0.084867,-0.31194 0.257027,-0.31194 0.1148532,0 0.1746896,0.0331 0.2208009,0.12231 0.04446,0.086 0.048414,0.26809 0.00775,0.35732 -0.054505,0.11963 -0.2352782,0.16978 -0.3609392,0.10013 z m 0.3684251,-1.30176 c -0.1266807,-0.0702 -0.157695,-0.2239 -0.077074,-0.38194 0.092226,-0.18077 0.2378628,-0.24156 0.3901096,-0.16283 0.1277465,0.0661 0.1594911,0.22134 0.077933,0.3812 -0.091095,0.17857 -0.2465616,0.2436 -0.3909686,0.16357 z m 3.2762796,4.1268 c 0.149585,-0.0705 0.214413,-0.1382 0.284734,-0.29718 0.04862,-0.1099 0.05233,-0.14772 0.03857,-0.39268 -0.03941,-0.70104 -0.279772,-1.93944 -0.546021,-2.81319 -0.965243,-3.16762 -2.6798893,-5.01035 -4.5881652,-4.9309 -1.0912935,0.0455 -1.988518,0.75411 -2.3597195,1.86381 -0.1161471,0.34722 -0.1608342,0.64894 -0.1609524,1.08673 -1.181e-4,0.43216 0.044149,0.75931 0.1598759,1.18156 0.3126507,1.14077 0.9947643,2.12764 1.9377282,2.80346 0.1203045,0.0862 0.2270702,0.15676 0.2372568,0.15676 0.010181,0 0.031036,-0.0801 0.046323,-0.17806 0.015287,-0.0979 0.066648,-0.38112 0.1141373,-0.62929 l 0.086337,-0.45121 -0.1842747,-0.1698 c -0.5400792,-0.49764 -0.9389042,-1.19223 -1.1401833,-1.9857 -0.059596,-0.23495 -0.065391,-0.29944 -0.065088,-0.72457 3.257e-4,-0.46049 0.00144,-0.46981 0.079788,-0.70343 0.3148559,-0.93816 1.176877,-1.3181 2.0804361,-0.91695 0.40513,0.17985 0.9904296,0.69231 1.3183015,1.15422 0.9298553,1.31 1.5952173,3.23735 1.7994793,5.21253 0.04171,0.40334 0.08477,0.52471 0.229175,0.64594 0.187193,0.15717 0.417553,0.1892 0.632269,0.088 z m -0.543346,-1.81903 c -0.160678,-0.0699 -0.197363,-0.21745 -0.101399,-0.40775 0.07265,-0.14407 0.200421,-0.21226 0.322327,-0.17203 0.182839,0.0604 0.229705,0.21378 0.127129,0.41621 -0.04774,0.0942 -0.08779,0.13821 -0.149116,0.16383 -0.100457,0.042 -0.101907,0.042 -0.198941,-2.1e-4 z m -0.611053,-1.76165 c -0.10116,-0.0556 -0.133974,-0.12496 -0.134542,-0.28426 -4.98e-4,-0.13293 0.0084,-0.16302 0.067,-0.22805 0.125101,-0.13878 0.360813,-0.10351 0.424301,0.0635 0.105809,0.27829 -0.129206,0.57397 -0.356756,0.44883 z m -5.6273763,-1.77876 c -0.1100323,-0.0543 -0.1404269,-0.12743 -0.1274587,-0.30672 0.00971,-0.13419 0.020688,-0.16159 0.089448,-0.22302 0.088252,-0.0788 0.1880086,-0.0904 0.2964219,-0.0343 0.093025,0.0481 0.1351143,0.15815 0.1174698,0.30714 -0.017582,0.14841 -0.055429,0.21143 -0.1555564,0.25895 -0.096246,0.0457 -0.124221,0.0454 -0.2203251,-0.002 z m 4.7765363,-0.3364 c -0.1403916,-0.10708 -0.1860226,-0.22294 -0.1354631,-0.34395 0.046717,-0.11182 0.1617891,-0.17544 0.2779061,-0.15366 0.122932,0.0231 0.30313,0.20293 0.30313,0.30256 0,0.25271 -0.235061,0.35561 -0.445573,0.19505 z M 9.03142,220.4724 c -0.1114201,-0.0617 -0.1566488,-0.2171 -0.098737,-0.33914 0.014727,-0.0311 0.072572,-0.0935 0.1285442,-0.13879 0.090245,-0.073 0.1142434,-0.081 0.2118922,-0.07 0.1456872,0.0164 0.2225803,0.10176 0.2214886,0.24581 -8.332e-4,0.11588 -0.025582,0.15674 -0.158738,0.26256 -0.101413,0.0806 -0.2058729,0.0942 -0.3044496,0.0395 z m -0.9809521,-0.51236 c -0.066133,-0.0318 -0.1761501,-0.23375 -0.1761501,-0.32333 0,-0.21309 0.240693,-0.33582 0.4050414,-0.20654 0.075064,0.0591 0.1585025,0.22206 0.1593381,0.3113 7.454e-4,0.0791 -0.069201,0.1906 -0.1397649,0.22275 -0.073208,0.0333 -0.1739592,0.0317 -0.2484645,-0.005 z m -1.676334,-0.0771 c -0.1199726,-0.0388 -0.1874018,-0.17928 -0.1484424,-0.30931 0.032248,-0.10762 0.091627,-0.15265 0.2547165,-0.19311 0.1471425,-0.0365 0.2672364,0.007 0.3238463,0.11596 0.048285,0.0934 0.04827,0.13474 -9.77e-5,0.23665 -0.057679,0.12156 -0.2789494,0.19865 -0.430028,0.14981 z m 4.1454981,6.9153 c 0.09727,-0.01 0.183636,-0.0246 0.191911,-0.0328 0.01589,-0.0159 -0.06901,-0.70835 -0.119698,-0.97621 l -0.02987,-0.15784 -0.5762768,-2e-5 -0.5762766,-3e-5 -0.029317,0.15787 c -0.052035,0.2802 -0.1339348,0.96071 -0.1175909,0.97708 0.043376,0.0435 0.9203263,0.0658 1.2571173,0.032 z m 2.600923,-0.94633 c 1.094339,-0.78334 1.86301,-2.03938 2.060017,-3.36616 0.04866,-0.32775 0.04851,-0.91632 -3.48e-4,-1.21768 -0.132687,-0.81877 -0.582388,-1.53553 -1.225679,-1.95354 -0.391683,-0.25452 -0.783376,-0.37865 -1.25708,-0.39838 -0.749284,-0.0312 -1.461934,0.2261 -2.153897,0.77765 l -0.192163,0.15316 0.05707,0.0695 c 0.193097,0.23515 0.43626,0.55355 0.540668,0.70796 l 0.121149,0.17918 0.133289,-0.12182 c 0.508167,-0.46443 1.17112,-0.68036 1.703568,-0.55485 0.469651,0.1107 0.857643,0.49884 1.039085,1.03947 0.0784,0.23362 0.07946,0.24294 0.07979,0.70343 2.83e-4,0.42513 -0.0055,0.48963 -0.06509,0.72457 -0.201281,0.79347 -0.600105,1.48806 -1.140184,1.98571 l -0.184275,0.16979 0.08634,0.45121 c 0.04748,0.24817 0.09885,0.53135 0.114138,0.62929 0.01529,0.0979 0.03614,0.17807 0.04632,0.17807 0.01019,0 0.116953,-0.0705 0.237257,-0.15657 z m 1.110506,-4.65459 c -0.07217,-0.0645 -0.07891,-0.0828 -0.07602,-0.20623 0.0035,-0.14805 0.05466,-0.27224 0.128512,-0.31177 0.07898,-0.0423 0.234503,-0.0298 0.303183,0.0241 0.07657,0.0602 0.100226,0.15584 0.07696,0.31102 -0.03627,0.24189 -0.260498,0.33665 -0.432632,0.18285 z m -2.972755,-1.1465 c -0.03681,-0.02 -0.07826,-0.0575 -0.09211,-0.0834 -0.03267,-0.061 -0.03231,-0.21212 6.22e-4,-0.27372 0.04155,-0.0776 0.220575,-0.19411 0.298369,-0.19411 0.237934,0 0.346826,0.24928 0.187943,0.43024 -0.135192,0.15397 -0.262289,0.1929 -0.394864,0.12095 z m 1.356415,-0.3647 c -0.199726,-0.0717 -0.249686,-0.30216 -0.09558,-0.44104 0.06619,-0.0596 0.0934,-0.0686 0.178925,-0.0586 0.174235,0.0202 0.282712,0.0804 0.324201,0.17972 0.102118,0.2444 -0.12375,0.42171 -0.407544,0.31992 z m -2.240902,5.42333 0.07404,-0.0148 -0.08351,-0.32292 c -0.09299,-0.35956 -0.355024,-1.17028 -0.3782559,-1.17028 -0.023431,0 -0.2855786,0.81259 -0.3779087,1.17141 l -0.083381,0.32405 0.065118,0.01 c 0.1076104,0.0165 0.7043336,0.0184 0.7838986,0.002 z M 7.6149235,223.7092 c 0.2285754,-0.75998 0.5414018,-1.54768 0.849502,-2.13903 l 0.1689292,-0.32423 -0.1277609,-0.11487 c -0.3857871,-0.34687 -0.7697121,-0.52615 -1.1267484,-0.52615 -0.4100571,0 -0.7627004,0.32496 -0.8928968,0.82281 -0.050846,0.19444 -0.050316,0.65073 0.00106,0.91822 0.083743,0.43596 0.2998051,0.94947 0.5545262,1.31793 0.128123,0.18534 0.4134296,0.51247 0.4313332,0.49457 0.00545,-0.005 0.069375,-0.20762 0.1420519,-0.44925 z m 5.3148485,-0.0425 c 0.377353,-0.54586 0.600707,-1.22664 0.597564,-1.82137 -0.0023,-0.44915 -0.116624,-0.76122 -0.365645,-0.99875 -0.196789,-0.18771 -0.367135,-0.25093 -0.632936,-0.2349 -0.337715,0.0204 -0.66744,0.17999 -1.034575,0.50089 l -0.150353,0.13143 0.212712,0.42346 c 0.326292,0.64957 0.648955,1.49486 0.88826,2.32698 l 0.05297,0.18422 0.152292,-0.16383 c 0.08376,-0.0901 0.209628,-0.24676 0.279705,-0.34813 z"
       id="path826"
       inkscape:connector-curvature="0" />
    <circle
       style="fill:none;fill-opacity:1;stroke:#000000;stroke-width:0.15832524;stroke-miterlimit:4;stroke-dasharray:none;stroke-dashoffset:0;stroke-opacity:0.31343288"
       id="path828"
       cx="9.9861336"
       cy="222.81068"
       r="7.4362073" />
    <circle
       r="0.63321394"
       cy="222.80176"
       cx="-22.325531"
       id="path840"
       style="fill:none;fill-opacity:0.31372549;stroke:#000000;stroke-width:0.15832524;stroke-miterlimit:4;stroke-dasharray:none;stroke-dashoffset:0;stroke-opacity:0.31372549" />
    <path
       style="fill:none;stroke:#000000;stroke-width:0.15832524;stroke-linecap:butt;stroke-linejoin:miter;stroke-miterlimit:4;stroke-dasharray:none;stroke-opacity:0.31372549"
       d="M 17.500022,222.81069 H 41.593543"
       id="path832"
       inkscape:connector-curvature="0" />
    <path
       inkscape:connector-curvature="0"
       id="path834"
       d="M -21.621279,222.81069 H 2.4722426"
       style="fill:none;stroke:#000000;stroke-width:0.15832524;stroke-linecap:butt;stroke-linejoin:miter;stroke-miterlimit:4;stroke-dasharray:none;stroke-opacity:0.31372549" />
    <circle
       style="fill:none;fill-opacity:0.31372549;stroke:#000000;stroke-width:0.15832524;stroke-miterlimit:4;stroke-dasharray:none;stroke-dashoffset:0;stroke-opacity:0.31372549"
       id="circle845"
       cx="42.300282"
       cy="222.80176"
       r="0.63321394" />
  </g>
</svg>
