<?xml version="1.0" encoding="UTF-8" standalone="no"?>
<svg
   xmlns:dc="http://purl.org/dc/elements/1.1/"
   xmlns:cc="http://creativecommons.org/ns#"
   xmlns:rdf="http://www.w3.org/1999/02/22-rdf-syntax-ns#"
   xmlns:svg="http://www.w3.org/2000/svg"
   xmlns="http://www.w3.org/2000/svg"
   xmlns:sodipodi="http://sodipodi.sourceforge.net/DTD/sodipodi-0.dtd"
   xmlns:inkscape="http://www.inkscape.org/namespaces/inkscape"
   version="1.0"
   width="19.608541pt"
   height="12.898837pt"
   viewBox="0 0 19.608542 12.898837"
   preserveAspectRatio="xMidYMid meet"
   id="svg10"
   sodipodi:docname="quotes.svg"
   inkscape:version="0.92.4 (5da689c313, 2019-01-14)">
  <defs
     id="defs14" />
  <sodipodi:namedview
     pagecolor="#ffffff"
     bordercolor="#666666"
     borderopacity="1"
     objecttolerance="10"
     gridtolerance="10"
     guidetolerance="10"
     inkscape:pageopacity="0"
     inkscape:pageshadow="2"
     inkscape:window-width="1920"
     inkscape:window-height="1001"
     id="namedview12"
     showgrid="false"
     fit-margin-top="0"
     fit-margin-left="0"
     fit-margin-right="0"
     fit-margin-bottom="0"
     inkscape:zoom="6.35625"
     inkscape:cx="53.054719"
     inkscape:cy="37.873563"
     inkscape:window-x="-9"
     inkscape:window-y="-9"
     inkscape:window-maximized="1"
     inkscape:current-layer="svg10" />
  <metadata
     id="metadata2">
Created by potrace 1.15, written by Peter Selinger 2001-2017
<rdf:RDF>
  <cc:Work
     rdf:about="">
    <dc:format>image/svg+xml</dc:format>
    <dc:type
       rdf:resource="http://purl.org/dc/dcmitype/StillImage" />
    <dc:title></dc:title>
  </cc:Work>
</rdf:RDF>
</metadata>
  <g
     transform="matrix(-0.00153264,0,0,0.00153264,19.610129,5.1561173e-7)"
     id="g8"
     style="fill:#000000;stroke:none;fill-opacity:0.62189054">
    <path
       d="m 1970,8414 c -19,-2 -78,-9 -130,-15 C 1441,8354 1038,8179 720,7912 228,7500 -24,6963 3,6385 24,5945 172,5601 474,5291 c 303,-310 628,-466 1049,-503 276,-24 526,14 897,136 396,131 519,144 663,73 57,-28 92,-56 153,-119 109,-114 163,-229 201,-432 25,-127 24,-567 -1,-746 C 3363,3170 3202,2741 2926,2347 2606,1888 1955,1368 1015,820 899,753 799,693 793,688 783,680 780,598 780,339 780,152 782,0 785,0 c 17,0 501,166 620,213 1187,464 2085,1176 2740,2172 475,723 728,1442 817,2320 19,196 16,704 -6,885 -83,685 -285,1194 -670,1690 -104,135 -409,441 -551,555 -377,300 -754,476 -1185,551 -114,20 -187,26 -345,29 -110,2 -216,1 -235,-1 z"
       id="path4"
       inkscape:connector-curvature="0"
       style="fill:#000000;fill-opacity:0.62189054" />
    <path
       d="m 9685,8410 c -320,-33 -652,-142 -902,-298 -246,-153 -490,-389 -656,-635 -73,-108 -171,-318 -211,-448 -61,-203 -71,-276 -70,-539 0,-206 3,-248 22,-340 76,-351 236,-636 504,-896 105,-102 161,-147 269,-217 298,-194 664,-284 1000,-247 142,15 307,55 519,124 411,135 580,156 720,89 146,-68 259,-218 309,-408 62,-235 77,-618 36,-930 -72,-552 -311,-1074 -706,-1545 -120,-143 -386,-405 -539,-529 -348,-285 -774,-565 -1232,-811 l -177,-95 -1,-344 c 0,-323 1,-343 18,-336 9,3 73,26 142,50 1250,432 2229,1083 2916,1940 597,746 974,1575 1099,2419 41,279 50,399 50,706 0,275 -7,381 -36,575 -105,706 -401,1312 -889,1819 -493,512 -989,785 -1600,882 -115,18 -461,26 -585,14 z"
       id="path6"
       inkscape:connector-curvature="0"
       style="fill:#000000;fill-opacity:0.62189054" />
  </g>
</svg>
