<?xml version="1.0" encoding="UTF-8" standalone="no"?>
<!-- Created with Inkscape (http://www.inkscape.org/) -->

<svg
   xmlns:dc="http://purl.org/dc/elements/1.1/"
   xmlns:cc="http://creativecommons.org/ns#"
   xmlns:rdf="http://www.w3.org/1999/02/22-rdf-syntax-ns#"
   xmlns:svg="http://www.w3.org/2000/svg"
   xmlns="http://www.w3.org/2000/svg"
   xmlns:sodipodi="http://sodipodi.sourceforge.net/DTD/sodipodi-0.dtd"
   xmlns:inkscape="http://www.inkscape.org/namespaces/inkscape"
   width="83.349312mm"
   height="83.349312mm"
   viewBox="0 0 83.349312 83.349312"
   version="1.1"
   id="svg8"
   sodipodi:docname="stamp.svg"
   inkscape:version="0.92.4 (5da689c313, 2019-01-14)">
  <defs
     id="defs2">
    <inkscape:path-effect
       effect="skeletal"
       id="path-effect4535"
       is_visible="true"
       pattern="M 0,0 H 1"
       copytype="repeated_stretched"
       prop_scale="0.82"
       scale_y_rel="false"
       spacing="0"
       normal_offset="1.5"
       tang_offset="1"
       prop_units="false"
       vertical_pattern="false"
       fuse_tolerance="0" />
  </defs>
  <sodipodi:namedview
     id="base"
     pagecolor="#ffffff"
     bordercolor="#666666"
     borderopacity="1.0"
     inkscape:pageopacity="0.0"
     inkscape:pageshadow="2"
     inkscape:zoom="2.8"
     inkscape:cx="57.622597"
     inkscape:cy="230.10894"
     inkscape:document-units="mm"
     inkscape:current-layer="layer1"
     showgrid="false"
     fit-margin-top="0"
     fit-margin-left="0"
     fit-margin-right="0"
     fit-margin-bottom="0"
     inkscape:window-width="1920"
     inkscape:window-height="986"
     inkscape:window-x="-11"
     inkscape:window-y="-11"
     inkscape:window-maximized="1" />
  <metadata
     id="metadata5">
    <rdf:RDF>
      <cc:Work
         rdf:about="">
        <dc:format>image/svg+xml</dc:format>
        <dc:type
           rdf:resource="http://purl.org/dc/dcmitype/StillImage" />
        <dc:title></dc:title>
      </cc:Work>
    </rdf:RDF>
  </metadata>
  <g
     inkscape:label="Layer 1"
     inkscape:groupmode="layer"
     id="layer1"
     transform="translate(-39.401187,-54.345855)">
    <path
       d="m 105.96483,119.51975 c -2.62165,2.77669 -1.23021,7.61115 -4.48119,9.6147 -3.250977,2.00354 -6.944168,-1.41237 -10.602926,-0.31851 -3.658758,1.09386 -4.87097,5.97635 -8.688171,6.08598 -3.817201,0.10963 -5.307641,-4.69523 -9.023149,-5.5773 -3.715508,-0.88207 -7.206558,2.74018 -10.567167,0.92653 -3.360609,-1.81366 -2.248935,-6.72001 -5.025626,-9.34166 -2.776691,-2.62165 -7.611154,-1.23021 -9.614699,-4.48119 -2.003545,-3.25097 1.41237,-6.94416 0.318509,-10.60292 -1.093861,-3.65876 -5.976348,-4.87097 -6.08598,-8.688173 -0.109632,-3.817201 4.695232,-5.307641 5.5773,-9.023149 0.882067,-3.715508 -2.740184,-7.206558 -0.926528,-10.567167 1.813656,-3.360609 6.720011,-2.248935 9.341658,-5.025626 2.621646,-2.776691 1.23021,-7.611154 4.481187,-9.614699 3.250977,-2.003545 6.944167,1.41237 10.602926,0.318509 3.658758,-1.093861 4.87097,-5.976348 8.688171,-6.08598 3.817201,-0.109632 5.30764,4.695232 9.023149,5.5773 3.715507,0.882067 7.206557,-2.740184 10.567166,-0.926528 3.36061,1.813656 2.24894,6.720011 5.02563,9.341658 2.77669,2.621646 7.61115,1.23021 9.6147,4.481187 2.00354,3.250977 -1.41237,6.944167 -0.31851,10.602926 1.09386,3.658758 5.97634,4.87097 6.08598,8.688171 0.10963,3.817201 -4.69524,5.307641 -5.5773,9.023151 -0.88207,3.71551 2.74018,7.20656 0.92652,10.56716 -1.81365,3.36061 -6.72001,2.24894 -9.34165,5.02563 z"
       inkscape:randomized="0"
       inkscape:rounded="0.36"
       inkscape:flatsided="false"
       sodipodi:arg2="1.0184848"
       sodipodi:arg1="0.75668543"
       sodipodi:r2="38.897446"
       sodipodi:r1="34.229752"
       sodipodi:cy="96.02051"
       sodipodi:cx="81.075842"
       sodipodi:sides="12"
       id="path4547"
       style="fill:#ffffff;fill-opacity:0.90196079;stroke:none;stroke-width:0.83853912;stroke-miterlimit:4;stroke-dasharray:none;stroke-dashoffset:0;stroke-opacity:0.78431373"
       sodipodi:type="star" />
    <path
       sodipodi:type="star"
       style="fill:none;fill-opacity:0.47058824;stroke:#ffffff;stroke-width:0.88914979;stroke-miterlimit:4;stroke-dasharray:none;stroke-dashoffset:0;stroke-opacity:0.90196079"
       id="path4549"
       sodipodi:sides="12"
       sodipodi:cx="81.075842"
       sodipodi:cy="96.02051"
       sodipodi:r1="36.295719"
       sodipodi:r2="41.245132"
       sodipodi:arg1="0.75668543"
       sodipodi:arg2="1.0184848"
       inkscape:flatsided="false"
       inkscape:rounded="0.36"
       inkscape:randomized="0"
       d="m 107.46702,120.93807 c -2.77987,2.94428 -1.30446,8.07053 -4.75165,10.195 -3.447193,2.12447 -7.363289,-1.49761 -11.242874,-0.33773 -3.879585,1.15988 -5.164963,6.33705 -9.212554,6.4533 -4.047591,0.11625 -5.627989,-4.97861 -9.567749,-5.91392 -3.93976,-0.9353 -7.641515,2.90557 -11.204956,0.98245 -3.563441,-1.92312 -2.384674,-7.1256 -5.328954,-9.90548 -2.94428,-2.77988 -8.070529,-1.30447 -10.195,-4.75166 -2.12447,-3.44719 1.497612,-7.36329 0.33773,-11.24287 -1.159882,-3.87959 -6.337052,-5.16496 -6.453301,-9.212554 -0.116249,-4.047591 4.978614,-5.627989 5.913919,-9.567749 0.935305,-3.93976 -2.905566,-7.641515 -0.982446,-11.204956 1.923121,-3.563441 7.1256,-2.384674 9.905479,-5.328954 2.779878,-2.94428 1.304463,-8.070529 4.751654,-10.195 3.447193,-2.12447 7.363289,1.497612 11.242874,0.33773 3.879585,-1.159882 5.164963,-6.337052 9.212553,-6.453301 4.047591,-0.116249 5.627989,4.978614 9.56775,5.913919 3.939759,0.935305 7.641514,-2.905566 11.204955,-0.982446 3.56344,1.923121 2.38467,7.1256 5.32895,9.905479 2.94428,2.779878 8.07053,1.304463 10.195,4.751654 2.12447,3.447193 -1.49761,7.363289 -0.33773,11.242874 1.15989,3.879585 6.33706,5.164963 6.45331,9.212553 0.11625,4.047591 -4.97862,5.627991 -5.91392,9.567751 -0.93531,3.93976 2.90556,7.64151 0.98244,11.20495 -1.92312,3.56345 -7.1256,2.38468 -9.90548,5.32896 z" />
  </g>
</svg>
