<?xml version="1.0" encoding="UTF-8" standalone="no"?>
<!-- Created with Inkscape (http://www.inkscape.org/) -->

<svg
   xmlns:dc="http://purl.org/dc/elements/1.1/"
   xmlns:cc="http://creativecommons.org/ns#"
   xmlns:rdf="http://www.w3.org/1999/02/22-rdf-syntax-ns#"
   xmlns:svg="http://www.w3.org/2000/svg"
   xmlns="http://www.w3.org/2000/svg"
   xmlns:sodipodi="http://sodipodi.sourceforge.net/DTD/sodipodi-0.dtd"
   xmlns:inkscape="http://www.inkscape.org/namespaces/inkscape"
   width="35.116943mm"
   height="35.116943mm"
   viewBox="0 0 35.116944 35.116944"
   version="1.1"
   id="svg8"
   sodipodi:docname="stamp-bread.svg"
   inkscape:version="0.92.4 (5da689c313, 2019-01-14)">
  <defs
     id="defs2">
    <inkscape:path-effect
       effect="skeletal"
       id="path-effect4535"
       is_visible="true"
       pattern="M 0,0 H 1"
       copytype="repeated_stretched"
       prop_scale="0.82"
       scale_y_rel="false"
       spacing="0"
       normal_offset="1.5"
       tang_offset="1"
       prop_units="false"
       vertical_pattern="false"
       fuse_tolerance="0" />
  </defs>
  <sodipodi:namedview
     id="base"
     pagecolor="#ffffff"
     bordercolor="#666666"
     borderopacity="1.0"
     inkscape:pageopacity="0.0"
     inkscape:pageshadow="2"
     inkscape:zoom="1.4142136"
     inkscape:cx="185.90596"
     inkscape:cy="150.1126"
     inkscape:document-units="mm"
     inkscape:current-layer="layer1"
     showgrid="false"
     fit-margin-top="0"
     fit-margin-left="0"
     fit-margin-right="0"
     fit-margin-bottom="0"
     inkscape:window-width="1920"
     inkscape:window-height="986"
     inkscape:window-x="-11"
     inkscape:window-y="-11"
     inkscape:window-maximized="1" />
  <metadata
     id="metadata5">
    <rdf:RDF>
      <cc:Work
         rdf:about="">
        <dc:format>image/svg+xml</dc:format>
        <dc:type
           rdf:resource="http://purl.org/dc/dcmitype/StillImage" />
        <dc:title></dc:title>
      </cc:Work>
    </rdf:RDF>
  </metadata>
  <g
     inkscape:label="Layer 1"
     inkscape:groupmode="layer"
     id="layer1"
     transform="translate(-39.501263,-102.47815)">
    <path
       sodipodi:type="star"
       style="fill:none;fill-opacity:0.47058824;stroke:#daa520;stroke-width:0.29099;stroke-miterlimit:4;stroke-dasharray:none;stroke-dashoffset:0;stroke-opacity:0.69019608"
       id="path4549"
       sodipodi:sides="12"
       sodipodi:cx="57.059734"
       sodipodi:cy="120.03662"
       sodipodi:r1="15.329014"
       sodipodi:r2="17.419333"
       sodipodi:arg1="0.75668543"
       sodipodi:arg2="1.0184848"
       inkscape:flatsided="false"
       inkscape:rounded="0.36"
       inkscape:randomized="0"
       d="m 68.205698,130.56022 c -1.174045,1.24348 -0.550923,3.40848 -2.006798,4.30572 -1.455876,0.89725 -3.109787,-0.63249 -4.748278,-0.14263 -1.638491,0.48986 -2.181353,2.67637 -3.890799,2.72546 -1.709447,0.0491 -2.376907,-2.10265 -4.040812,-2.49766 -1.663905,-0.39501 -3.227292,1.22713 -4.732264,0.41492 -1.504972,-0.8122 -1.007135,-3.0094 -2.250613,-4.18345 -1.243477,-1.17404 -3.40848,-0.55092 -4.305722,-2.00679 -0.897242,-1.45588 0.632496,-3.10979 0.142635,-4.74828 -0.48986,-1.63849 -2.676369,-2.18135 -2.725465,-3.8908 -0.0491,-1.70945 2.102651,-2.37691 2.497665,-4.04081 0.395013,-1.66391 -1.227128,-3.22729 -0.414923,-4.73227 0.812204,-1.50497 3.009402,-1.00713 4.183447,-2.25061 1.174044,-1.24348 0.550922,-3.40848 2.006798,-4.30572 1.455876,-0.89724 3.109787,0.63249 4.748278,0.14263 1.638491,-0.48986 2.181353,-2.67637 3.890799,-2.72546 1.709446,-0.0491 2.376906,2.10265 4.040812,2.49766 1.663905,0.39502 3.227292,-1.22712 4.732264,-0.41492 1.504972,0.8122 1.007135,3.0094 2.250612,4.18345 1.243478,1.17404 3.408481,0.55092 4.305723,2.0068 0.897241,1.45587 -0.632496,3.10978 -0.142636,4.74827 0.489861,1.63849 2.67637,2.18136 2.725466,3.8908 0.0491,1.70945 -2.102651,2.37691 -2.497665,4.04081 -0.395014,1.66391 1.227127,3.2273 0.414923,4.73227 -0.812204,1.50497 -3.009402,1.00713 -4.183447,2.25061 z" />
    <circle
       style="fill:#ffffff;fill-opacity:1;stroke:none;stroke-width:0.11174324;stroke-opacity:0.90196078"
       id="path815"
       cx="57.059734"
       cy="120.03661"
       r="12.651191" />
    <path
       style="fill:#daa520;fill-opacity:0.69019608;stroke-width:0.19119379"
       d="m 53.799396,127.62269 c -1.155184,-0.2712 -2.923476,-1.29693 -3.680654,-2.13503 -0.378192,-0.41861 -0.914349,-1.24465 -1.191452,-1.83563 -0.45281,-0.9657 -0.503827,-1.29716 -0.503827,-3.27324 0,-2.07834 0.0336,-2.26965 0.613593,-3.49412 0.731235,-1.54374 2.015884,-2.86514 3.608211,-3.71144 1.173994,-0.62396 2.989249,-1.06624 3.509292,-0.85504 0.182331,0.0741 -0.03671,0.17155 -0.561333,0.24982 -1.167324,0.17418 -1.495077,0.25602 -1.651474,0.41242 -0.07315,0.0731 -0.280197,0.133 -0.460108,0.133 -0.179911,0 -0.435943,0.13114 -0.568963,0.29141 -0.133021,0.16027 -0.282365,0.25089 -0.331886,0.20137 -0.0495,-0.0495 -0.548955,0.25645 -1.109847,0.67993 -1.605934,1.21248 -2.571024,2.95724 -2.84346,5.14054 -0.09695,0.77701 -0.07695,0.97361 0.07742,0.76092 0.161325,-0.22228 0.18033,-0.16714 0.08448,0.24512 -0.139798,0.60127 -0.151664,0.77019 -0.10926,1.55529 0.03642,0.67386 0.23715,0.51575 0.545855,-0.42991 0.222177,-0.68057 0.225905,-0.6699 0.126017,0.36085 -0.118069,1.21832 0.160177,2.46738 0.648005,2.90901 0.317476,0.2874 0.333692,0.21499 0.303544,-1.35581 l -0.03187,-1.6594 0.15264,1.43394 c 0.16952,1.59258 0.547068,2.65315 0.801662,2.25196 0.11726,-0.18478 0.155819,-0.17092 0.15803,0.0569 0.0029,0.27598 0.751303,1.13269 0.989783,1.13269 0.056,0 -0.107258,-0.4225 -0.362814,-0.93889 -0.255563,-0.51639 -0.498985,-1.31223 -0.540955,-1.76854 l -0.07629,-0.82966 0.184969,0.71776 c 0.291376,1.13062 1.15879,2.72657 1.330723,2.44838 0.100192,-0.16211 0.187731,-0.0794 0.272212,0.25718 0.06851,0.27289 0.206793,0.49616 0.307346,0.49616 0.115352,0 0.114001,-0.181 -0.0036,-0.49043 -0.102555,-0.26974 -0.173574,-0.85049 -0.157815,-1.29056 0.02211,-0.61802 0.04517,-0.66958 0.101183,-0.22655 0.110922,0.87709 0.639556,2.19614 0.889749,2.2201 0.122752,0.0118 0.507469,0.0541 0.854928,0.0941 0.413563,0.0476 0.588243,0.002 0.505777,-0.13108 -0.0693,-0.11211 0.04791,-0.0952 0.260419,0.0375 1.140428,0.71221 6.107826,-1.27852 6.904444,-2.76702 0.14485,-0.27066 0.33159,-0.44994 0.414974,-0.3984 0.08338,0.0515 0.371543,-0.2816 0.640358,-0.7403 0.572584,-0.97703 0.639095,-2.14257 0.194227,-3.40346 -0.161991,-0.45914 -0.205933,-0.7462 -0.09765,-0.63791 0.108285,0.10828 0.363594,0.6667 0.567352,1.24094 l 0.370467,1.04406 0.01214,-0.76478 c 0.0072,-0.43839 -0.192832,-1.20501 -0.468093,-1.79633 -0.630878,-1.35525 -0.47938,-1.45381 0.26685,-0.1736 0.325064,0.55769 0.589153,0.88491 0.586863,0.72718 -0.0079,-0.53835 -0.515396,-1.7205 -1.026297,-2.39032 -0.585967,-0.76824 -0.394422,-0.90245 0.273418,-0.19156 0.246588,0.26248 0.482676,0.44289 0.524653,0.40092 0.134885,-0.13489 -0.740977,-1.71352 -1.40542,-2.53309 -0.825495,-1.01823 -1.85435,-1.50154 -3.973157,-1.86643 -1.69869,-0.29254 -2.310433,-0.49961 -1.438828,-0.48702 1.165662,0.0168 3.511113,0.58071 4.273269,1.02736 1.60584,0.94109 2.949679,3.24975 3.118924,5.35815 0.108596,1.35283 -0.282957,2.97293 -1.024187,4.23774 -1.106356,1.88786 -3.714899,3.75025 -6.136001,4.38087 -1.19461,0.31116 -3.54694,0.34707 -4.718484,0.072 z m -1.058981,-2.002 c 0.0092,-0.22273 0.05448,-0.26803 0.115511,-0.11552 0.05521,0.13803 0.04842,0.30293 -0.0151,0.36646 -0.06352,0.0635 -0.108726,-0.0494 -0.100423,-0.25094 z m 10.516933,-1.89601 c 0.01987,-0.36216 0.338556,-0.972 0.349656,-0.66917 0.0058,0.15773 -0.07289,0.41584 -0.174831,0.57357 -0.101933,0.15774 -0.180613,0.20076 -0.174825,0.0956 z m -8.616033,-1.98354 c -2.337689,-1.55296 -4.456959,-3.46756 -4.641596,-4.19337 -0.07449,-0.2928 -0.03693,-0.41333 0.111732,-0.3585 0.12317,0.0454 0.200188,0.18617 0.171152,0.31272 -0.09137,0.39815 2.105317,2.36706 4.248166,3.80768 1.133223,0.76186 2.10744,1.33816 2.164932,1.28068 0.05745,-0.0575 -0.05094,-0.44924 -0.240907,-0.87054 -0.367844,-0.81575 -1.296175,-1.88387 -2.391114,-2.75119 -0.647758,-0.5131 -0.650627,-0.52097 -0.08958,-0.24582 0.685176,0.33602 2.225105,1.93576 2.623414,2.7253 0.37205,0.73748 0.561615,1.56372 0.382571,1.66747 -0.07925,0.0459 -1.131698,-0.57257 -2.338767,-1.37443 z m 9.01224,0.35839 c 0,-0.26289 0.04343,-0.37043 0.09643,-0.23899 0.05304,0.13145 0.05304,0.34654 0,0.47798 -0.05304,0.13145 -0.09643,0.0239 -0.09643,-0.23899 z m -4.12998,-0.9217 c -0.302389,-0.95273 -1.378807,-2.21615 -2.999337,-3.52038 -0.985259,-0.79295 -2.178547,-1.80201 -2.651756,-2.24234 l -0.860369,-0.80062 0.764773,0.53652 c 1.937307,1.35909 4.791953,3.85479 5.268211,4.60576 0.319746,0.50419 0.564816,0.73249 0.625083,0.58229 0.05448,-0.13588 0.105915,0.0756 0.114218,0.46991 0.01633,0.77669 -0.08562,0.92089 -0.260823,0.36886 z m -6.235037,-1.15803 c -0.467508,-0.30259 -1.28019,-1.00805 -1.805977,-1.56769 -0.945421,-1.0063 -0.941685,-1.00447 0.339271,0.16562 0.712375,0.65073 1.615769,1.35239 2.007531,1.55926 0.391762,0.20685 0.621599,0.3799 0.510742,0.38454 -0.110858,0.005 -0.584067,-0.23913 -1.051567,-0.54173 z m 6.143661,-0.32612 c 0.0092,-0.22272 0.05448,-0.26804 0.115511,-0.11551 0.05521,0.13802 0.04841,0.30292 -0.0151,0.36645 -0.06352,0.0635 -0.108719,-0.0494 -0.100416,-0.25094 z m -0.676707,-1.56142 c -0.177758,-0.28917 -0.768407,-0.93351 -1.312549,-1.43184 -0.544135,-0.49833 -0.921126,-0.90701 -0.837757,-0.90817 0.267247,-0.004 2.070767,1.78331 2.355538,2.334 0.354316,0.68516 0.214756,0.68925 -0.205232,0.006 z m 3.823329,-0.0477 c -0.07979,-0.26289 -0.630235,-0.94215 -1.223211,-1.50946 -0.873159,-0.83538 -0.956442,-0.9626 -0.438061,-0.66918 0.352047,0.19926 0.889779,0.64492 1.194964,0.99033 0.424981,0.48101 0.554714,0.54814 0.554171,0.2868 -0.0014,-0.57608 -0.709802,-1.54341 -1.570308,-2.14372 -1.449262,-1.01101 -1.607213,-1.19532 -0.559107,-0.65239 1.778395,0.92124 2.868961,2.64814 2.373199,3.75794 -0.18653,0.41756 -0.186609,0.41755 -0.331647,-0.0603 z m -6.131203,-1.57734 -1.141179,-1.19497 1.194957,1.14118 c 0.657232,0.62765 1.194964,1.16538 1.194964,1.19496 0,0.14128 -0.188691,-0.0311 -1.248742,-1.14117 z"
       id="path4531"
       inkscape:connector-curvature="0"
       sodipodi:nodetypes="cccscccccscscccccccccccccsccccccscccccccccccscccccccccccccccccccccccccccccccccccccccscssscccccccscscsccccccccccccccscccccccccccsc" />
  </g>
</svg>
