<?xml version="1.0" encoding="UTF-8" standalone="no"?>
<!-- Created with Inkscape (http://www.inkscape.org/) -->

<svg
   xmlns:dc="http://purl.org/dc/elements/1.1/"
   xmlns:cc="http://creativecommons.org/ns#"
   xmlns:rdf="http://www.w3.org/1999/02/22-rdf-syntax-ns#"
   xmlns:svg="http://www.w3.org/2000/svg"
   xmlns="http://www.w3.org/2000/svg"
   xmlns:sodipodi="http://sodipodi.sourceforge.net/DTD/sodipodi-0.dtd"
   xmlns:inkscape="http://www.inkscape.org/namespaces/inkscape"
   width="46.066895mm"
   height="10.727973mm"
   viewBox="0 0 46.066895 10.727973"
   version="1.1"
   id="svg8"
   inkscape:version="0.92.4 (5da689c313, 2019-01-14)"
   sodipodi:docname="wheat-ornament.svg">
  <defs
     id="defs2" />
  <sodipodi:namedview
     id="base"
     pagecolor="#ffffff"
     bordercolor="#666666"
     borderopacity="1.0"
     inkscape:pageopacity="0.0"
     inkscape:pageshadow="2"
     inkscape:zoom="1.979899"
     inkscape:cx="14.324898"
     inkscape:cy="61.022875"
     inkscape:document-units="mm"
     inkscape:current-layer="layer1"
     showgrid="false"
     inkscape:window-width="1920"
     inkscape:window-height="1001"
     inkscape:window-x="-9"
     inkscape:window-y="-9"
     inkscape:window-maximized="1"
     fit-margin-top="0"
     fit-margin-left="0"
     fit-margin-right="0"
     fit-margin-bottom="0" />
  <metadata
     id="metadata5">
    <rdf:RDF>
      <cc:Work
         rdf:about="">
        <dc:format>image/svg+xml</dc:format>
        <dc:type
           rdf:resource="http://purl.org/dc/dcmitype/StillImage" />
        <dc:title></dc:title>
      </cc:Work>
    </rdf:RDF>
  </metadata>
  <g
     inkscape:label="Layer 1"
     inkscape:groupmode="layer"
     id="layer1"
     transform="translate(-15.364991,-192.70933)">
    <path
       style="fill:#ffffff;fill-opacity:0.78431374;stroke-width:0.05845371"
       d="m 39.554543,197.18435 c 0.18031,-0.0829 0.52534,-0.2272 0.766726,-0.32067 0.241386,-0.0935 0.45601,-0.18303 0.476943,-0.19903 0.02094,-0.016 0.111336,-0.0485 0.200909,-0.0723 0.08957,-0.0238 0.392625,-0.11304 0.673453,-0.19843 0.280828,-0.0854 0.503893,-0.13023 0.495693,-0.0996 -0.0082,0.0306 -0.204649,0.10615 -0.436558,0.16787 -0.231902,0.0617 -0.415536,0.12282 -0.408065,0.13575 0.04885,0.0846 1.191469,0.11087 1.678365,0.0385 0.534833,-0.0794 0.575302,-0.0772 0.648621,0.0364 0.09801,0.15176 0.08413,0.2084 -0.05063,0.20764 -0.05815,-3.6e-4 0.554225,0.17877 1.360842,0.39808 2.238518,0.60862 3.701508,0.87463 5.106836,0.92856 0.909053,0.0349 1.33316,0.0176 1.311834,-0.0534 -0.01027,-0.0343 -0.18202,-0.20118 -0.381632,-0.37098 -0.199612,-0.1698 -0.471758,-0.47906 -0.604759,-0.68723 -0.208504,-0.32635 -0.22585,-0.3803 -0.125891,-0.39152 0.260928,-0.0293 0.752271,0.30472 0.92451,0.62854 0.04874,0.0916 0.101977,0.26569 0.1183,0.38678 0.04171,0.30945 0.168344,0.48803 0.340499,0.48018 0.134002,-0.006 0.132749,-0.0155 -0.03621,-0.27235 -0.169268,-0.25728 -0.372957,-0.7126 -0.352665,-0.78833 0.02218,-0.0828 0.285153,0.0461 0.522421,0.25586 0.164126,0.14515 0.276559,0.30751 0.321566,0.46439 0.03806,0.13267 0.07342,0.25187 0.07858,0.26492 0.0052,0.013 0.04124,0.0141 0.08026,0.002 0.04828,-0.0145 0.05408,-0.0674 0.01823,-0.16593 -0.08897,-0.24433 -0.04093,-0.29341 0.162516,-0.16598 0.364135,0.22809 0.615153,0.76189 0.521913,1.10986 -0.02061,0.0769 -0.0099,0.17871 0.02374,0.22624 0.107505,0.15178 0.534451,1.1169 0.487127,1.10116 -0.02506,-0.008 -0.120293,-0.18112 -0.211685,-0.384 -0.09139,-0.20287 -0.23443,-0.48207 -0.317874,-0.62045 -0.366481,-0.60774 -0.634018,-0.99883 -0.694329,-1.01499 -0.174048,-0.0466 -0.08423,0.24153 0.257691,0.82676 0.207019,0.35433 0.426572,0.7666 0.487898,0.91617 0.06132,0.14957 -0.01993,0.024 -0.180586,-0.27911 -0.546612,-1.03124 -0.985708,-1.55811 -1.160972,-1.39305 -0.02226,0.0209 0.113054,0.26026 0.300646,0.53182 0.187591,0.27156 0.396168,0.62541 0.463497,0.78635 0.09929,0.23731 0.06736,0.20149 -0.168991,-0.18957 -0.479324,-0.79309 -0.716607,-1.0978 -0.85322,-1.09566 -2.219824,0.0349 -3.106592,-0.0913 -6.179106,-0.87911 l -2.038513,-0.52269 -0.577807,0.0636 c -0.802327,0.0883 -1.422564,0.22252 -1.97434,0.42723 l -0.470371,0.17451 0.438259,-0.24238 c 0.241039,-0.1333 0.683594,-0.31555 0.983462,-0.405 0.589061,-0.17569 0.587774,-0.18311 -0.04102,-0.23638 -0.47467,-0.0403 -0.626477,-0.003 -1.61835,0.39727 -0.746887,0.30137 -0.91545,0.34326 -0.367525,0.0913 z m 3.278644,-1.05777 c 0.184176,-0.0804 0.496196,-0.12095 0.512531,-0.0665 0.0095,0.0315 -0.12345,0.076 -0.295364,0.0988 -0.318249,0.0422 -0.370196,0.0346 -0.217166,-0.0323 z m 1.170094,-0.22343 c 1.522263,-0.21225 3.221499,-0.12077 4.766664,0.25661 l 0.965576,0.23583 -0.803929,-0.16156 c -1.609087,-0.32335 -3.033922,-0.41232 -4.430886,-0.27668 -0.380845,0.037 -0.70378,0.0476 -0.71763,0.0236 -0.01387,-0.024 0.08522,-0.059 0.220205,-0.0778 z m 0.185879,0.58295 c 1.309314,-0.12527 2.888705,0.0289 4.290322,0.41872 l 0.535028,0.1488 -1.115331,-0.12862 c -1.429145,-0.16481 -2.119562,-0.19551 -3.10977,-0.13827 -0.439497,0.0254 -0.848369,0.0523 -0.908611,0.0597 -0.09,0.0111 -0.101348,-0.017 -0.06362,-0.15781 0.04154,-0.15505 0.07702,-0.17434 0.371985,-0.20257 z m 6.322075,-0.10617 c 0.481804,-0.22608 0.793764,-0.1969 1.933434,0.18086 0.600619,0.19908 1.042461,0.38384 1.459179,0.61018 0.328733,0.17854 0.585279,0.33179 0.570101,0.34055 -0.01514,0.009 -0.288301,-0.12178 -0.606954,-0.29009 -0.318646,-0.16831 -0.830738,-0.39073 -1.137981,-0.49425 l -0.558626,-0.18823 -0.293227,0.11208 c -0.161269,0.0617 -0.430857,0.11579 -0.599085,0.12031 -0.335203,0.009 -1.027561,-0.15238 -1.005581,-0.23441 0.0076,-0.0283 0.115013,-0.099 0.23874,-0.157 z m 1.162134,0.46598 c 0.158465,-0.0303 0.396085,-0.0412 0.528036,-0.0242 0.247036,0.0319 0.954458,0.34644 1.695989,0.75404 0.232083,0.12757 0.458961,0.24636 0.504171,0.26395 0.04523,0.0176 0.09107,0.0497 0.101905,0.0714 0.01085,0.0217 0.163536,0.1411 0.339325,0.26545 0.17579,0.12435 0.306877,0.23344 0.291302,0.24243 -0.01556,0.009 -0.191798,-0.0996 -0.39162,-0.24124 -0.317781,-0.22532 -0.386826,-0.25451 -0.551052,-0.23288 -0.103258,0.0136 -0.192119,0.041 -0.197462,0.061 -0.0053,0.0199 0.113156,0.10258 0.263324,0.18365 0.258546,0.13957 1.39664,1.07426 1.380661,1.13389 -0.0041,0.0154 -0.212831,-0.14578 -0.463801,-0.35817 -0.503785,-0.42635 -1.030853,-0.79107 -1.225321,-0.84789 -0.146006,-0.0427 -0.694862,-0.0398 -0.885069,0.005 -0.07144,0.0167 -0.163058,0.0205 -0.203622,0.008 -0.04058,-0.0121 -0.0028,-0.0396 0.08385,-0.0612 0.156779,-0.039 0.156508,-0.0398 -0.05395,-0.13745 -0.116342,-0.054 -0.283909,-0.16503 -0.372381,-0.24671 l -0.160853,-0.1485 0.178431,-0.03 c 0.313756,-0.0528 0.749646,0.0493 1.063799,0.24915 0.24812,0.15784 0.317243,0.18016 0.488041,0.15768 l 0.19898,-0.0262 -0.183306,-0.12409 c -0.100819,-0.0682 -0.367196,-0.20805 -0.591953,-0.31065 -0.388738,-0.17748 -0.423118,-0.18377 -0.705819,-0.12927 -0.163452,0.0315 -0.418465,0.0397 -0.566697,0.0182 -0.287262,-0.0416 -0.886933,-0.31392 -0.865718,-0.3931 0.007,-0.0261 0.142363,-0.0722 0.300828,-0.10255 z m 1.551131,1.62643 c 0.14159,0.038 0.438223,0.465 0.479535,0.69038 0.02255,0.12311 0.02244,0.29319 -2.72e-4,0.37795 -0.02307,0.0861 0.01339,0.29885 0.08257,0.48197 0.06812,0.18033 0.101405,0.32185 0.07398,0.31451 -0.02741,-0.007 -0.07661,-0.0954 -0.109289,-0.19571 -0.03267,-0.10028 -0.163497,-0.37362 -0.290713,-0.60741 -0.210835,-0.38746 -0.367274,-0.87593 -0.327758,-1.0234 0.0086,-0.0323 0.05,-0.0495 0.09195,-0.0383 z m 0.182605,-0.21324 c 0.05957,-0.006 0.239612,0.024 0.400031,0.0673 0.237388,0.064 0.410433,0.17818 0.929754,0.61313 0.540655,0.45283 1.425328,1.36335 1.403564,1.44456 -0.0084,0.0315 -0.06473,-0.0262 -0.391501,-0.40067 -0.146248,-0.16761 -0.44598,-0.46024 -0.66608,-0.65027 -0.368268,-0.31797 -0.427153,-0.34981 -0.738653,-0.39933 -0.394487,-0.0627 -0.738276,-0.24719 -0.920366,-0.49389 -0.10932,-0.1481 -0.11143,-0.17093 -0.01672,-0.18086 z m 0.60381,1.02912 c 0.127366,0.0341 0.385075,0.5719 0.392019,0.81804 0.0161,0.57087 -0.302547,0.34603 -0.4353,-0.30716 -0.06769,-0.33309 -0.05051,-0.53601 0.04328,-0.51088 z m 0.194359,-0.15135 c 0.06325,-0.007 0.240815,0.0513 0.394624,0.12876 0.34362,0.17303 1.243005,1.17052 1.651913,1.83209 l 0.274394,0.44396 -0.362164,-0.50856 c -0.505474,-0.7098 -0.911834,-1.12544 -1.114085,-1.13953 -0.228704,-0.0159 -0.634396,-0.28219 -0.809636,-0.53135 -0.133243,-0.18944 -0.137163,-0.21464 -0.03504,-0.22537 z m 0.717267,-1.62737 c 0.21928,-0.32912 0.531511,-0.62003 0.835901,-0.77882 0.224433,-0.11708 0.980958,-0.76443 1.406334,-1.20339 0.163558,-0.16878 0.292333,-0.28688 0.28617,-0.26247 -0.02271,0.0901 -0.481623,0.56618 -0.968657,1.00501 -0.325533,0.29332 -0.501344,0.49222 -0.5018,0.5677 -0.0012,0.20075 -0.24592,0.55031 -0.500579,0.71508 -0.195241,0.12633 -0.8053,0.34686 -0.76899,0.27799 0.0046,-0.009 0.100066,-0.15365 0.211621,-0.3211 z m 0.185728,0.31997 c 0.407496,-0.0835 0.902782,0.009 1.200602,0.22477 0.220517,0.15965 0.229047,0.161 0.796169,0.12626 0.315293,-0.0193 0.876977,-0.10146 1.248182,-0.18255 0.371206,-0.0811 0.613415,-0.12115 0.538245,-0.089 -0.247841,0.10587 -1.507683,0.34544 -1.961393,0.37296 -0.244961,0.0148 -0.604921,0.0406 -0.799912,0.0572 -0.430107,0.0366 -0.882707,-0.078 -1.141504,-0.28905 l -0.192084,-0.15663 z m -0.992563,3.12075 c 0.08046,0.23146 0.08926,0.35336 0.01337,0.18513 -0.04268,-0.0947 -0.071,-0.19754 -0.0629,-0.22866 0.0081,-0.0311 0.03039,-0.0115 0.04952,0.0435 z m 0.546493,-0.7613 c 0.0776,0.0208 0.25911,0.29668 0.312801,0.47544 0.06322,0.21049 -0.01313,0.69413 -0.105666,0.66934 -0.113782,-0.0305 -0.124297,-0.18245 -0.03008,-0.4346 0.101624,-0.27204 0.101585,-0.27243 -0.06839,-0.31797 -0.145899,-0.0391 -0.167237,-0.0707 -0.149634,-0.22164 0.0113,-0.0968 0.02972,-0.17359 0.04072,-0.17064 z m -0.20351,0.82246 c 0.06914,0.0734 0.114282,0.30342 0.0565,0.28795 -0.02714,-0.007 -0.06161,-0.0863 -0.07655,-0.17566 -0.01553,-0.0928 -0.0069,-0.14093 0.02008,-0.11228 z m 0.533368,-0.85511 c 0.0958,0.0257 0.241422,0.10795 0.323611,0.18286 0.200685,0.18289 0.80644,1.0814 1.004621,1.49014 0.101782,0.20992 0.02476,0.11216 -0.212377,-0.26959 -0.204644,-0.32943 -0.397609,-0.6058 -0.428818,-0.61416 -0.03121,-0.008 -0.08636,-0.0665 -0.122557,-0.1292 -0.04447,-0.077 -0.122435,-0.11764 -0.240606,-0.12526 -0.191097,-0.0124 -0.416312,-0.23174 -0.468922,-0.45683 -0.02583,-0.11061 -0.0095,-0.11939 0.145048,-0.078 z m 1.015606,-3.02598 c 0.189275,-0.29652 0.392075,-0.50532 0.667424,-0.68713 0.244601,-0.16151 0.570536,-0.47536 1.088933,-1.04859 0.158487,-0.17524 0.254727,-0.25951 0.213872,-0.18724 -0.04088,0.0723 -0.300211,0.37513 -0.576344,0.67305 -0.410053,0.4424 -0.515604,0.59155 -0.576,0.81391 -0.09062,0.33287 -0.35614,0.62096 -0.673498,0.73009 -0.363745,0.12508 -0.384702,0.0824 -0.144387,-0.29409 z m 0.08256,0.43132 c 0.333956,-0.12197 0.636619,-0.10612 1.090795,0.0571 0.408435,0.14678 0.436599,0.14843 0.928928,0.0541 0.279246,-0.0535 0.762586,-0.18641 1.074074,-0.29541 0.311495,-0.10898 0.523329,-0.16767 0.470742,-0.13043 -0.205469,0.14553 -1.228039,0.4487 -2.01701,0.598 -0.772722,0.14621 -0.856275,0.14973 -1.236362,0.0521 -0.489098,-0.12569 -0.58937,-0.23381 -0.311167,-0.33541 z m -0.724317,3.68149 c 0.211007,-0.021 0.299143,0.0975 0.292254,0.39274 -0.0023,0.0992 0.03795,0.30104 0.08946,0.44847 0.11165,0.31949 0.323134,1.27058 0.300273,1.3504 -0.0089,0.0309 -0.07924,-0.21822 -0.156427,-0.55363 -0.165059,-0.71728 -0.286856,-1.03657 -0.436892,-1.14531 -0.10224,-0.0741 -0.210814,-0.25031 -0.250425,-0.4064 -0.0096,-0.0376 0.06323,-0.0765 0.161754,-0.0863 z m 1.691172,-4.63065 c 0.07579,-0.1196 0.259215,-0.31554 0.407632,-0.43541 0.258353,-0.20868 0.660135,-0.67676 1.047168,-1.21997 0.09956,-0.13975 0.145944,-0.18179 0.103069,-0.0934 -0.0429,0.0884 -0.249856,0.38692 -0.459951,0.66347 -0.30114,0.39638 -0.39621,0.56574 -0.449216,0.80022 -0.0367,0.16365 -0.112704,0.34753 -0.16835,0.40875 -0.126784,0.13965 -0.447521,0.34344 -0.596818,0.37921 -0.09569,0.0229 -0.106079,0.003 -0.06725,-0.12913 0.02518,-0.086 0.107901,-0.25411 0.183698,-0.37371 z m 0.08796,0.56983 c 0.312078,-0.14221 0.691967,-0.1565 1.024367,-0.0385 0.333561,0.11838 0.937038,-0.0514 1.778853,-0.5006 0.448358,-0.23923 0.559338,-0.28252 0.368049,-0.14357 -0.484942,0.35225 -1.337638,0.69551 -2.394856,0.96408 -0.315486,0.0801 -0.610962,0.0564 -0.854953,-0.0688 l -0.182604,-0.0936 z m 0.882109,-1.12881 c 0.04838,-0.0781 0.169874,-0.21921 0.270059,-0.31356 0.100181,-0.0944 0.311168,-0.37179 0.468857,-0.61653 0.15769,-0.24476 0.276896,-0.40101 0.264899,-0.34725 -0.01225,0.0537 -0.131298,0.26887 -0.265158,0.47801 -0.177757,0.27776 -0.239345,0.42091 -0.228488,0.53111 0.0298,0.30243 -0.320105,0.79399 -0.614089,0.86271 -0.112813,0.0264 -0.1174,0.008 -0.05367,-0.21183 0.03832,-0.13236 0.109265,-0.30454 0.157572,-0.38266 z m 0.07612,0.66173 c 0.330467,-0.1788 0.641797,-0.23121 0.938985,-0.15807 0.24083,0.0592 0.288543,0.044 0.832087,-0.26675 0.317131,-0.18129 0.669975,-0.39992 0.784098,-0.48584 0.151047,-0.1137 0.136677,-0.0928 -0.05277,0.0766 -0.458203,0.40985 -1.572141,0.99679 -2.040833,1.07531 -0.147389,0.0247 -0.342747,0.01 -0.473573,-0.0361 l -0.222695,-0.0782 z m -1.635589,5.47038 c 0.01174,0.003 0.0443,0.0595 0.07234,0.12529 0.04624,0.10837 0.0437,0.10984 -0.02705,0.0156 -0.07428,-0.099 -0.09177,-0.15334 -0.0453,-0.14089 z m 2.687398,-7.70672 c 0.0052,0.043 -0.01175,0.10653 -0.03782,0.14115 -0.02608,0.0346 -0.03036,-5.8e-4 -0.0096,-0.0782 0.0208,-0.0776 0.04211,-0.10597 0.04739,-0.063 z m -0.169536,0.84718 c 0.222991,-0.30848 0.364461,-0.58104 0.55151,-1.06254 0.16314,-0.41999 0.16253,-0.41505 -0.01392,0.1173 -0.101348,0.30568 -0.198055,0.63378 -0.214948,0.72911 -0.114857,0.64738 -0.1673,0.76361 -0.407362,0.90218 l -0.232666,0.13431 0.08559,-0.30874 c 0.04694,-0.16984 0.151363,-0.40004 0.231981,-0.51158 z m 0.170151,0.69908 c 0.2888,-0.17367 0.413366,-0.21242 0.615484,-0.19148 0.216696,0.0224 0.296948,-0.008 0.553933,-0.2081 0.165285,-0.12889 0.413063,-0.35144 0.55062,-0.49456 0.137551,-0.14312 0.244707,-0.23824 0.238111,-0.21139 -0.02387,0.0971 -0.534916,0.60633 -0.807131,0.80424 -0.153163,0.11136 -0.374004,0.27494 -0.49075,0.36352 -0.252769,0.19178 -0.672417,0.29401 -0.876048,0.21342 -0.145515,-0.0576 -0.144343,-0.0591 0.215781,-0.27565 z m 0.886747,-2.48931 c 0.0014,0.0757 -0.03729,0.29629 -0.08597,0.49024 -0.0599,0.23955 -0.06992,0.43618 -0.03061,0.61296 0.04196,0.18883 0.03374,0.31059 -0.02996,0.44339 -0.10202,0.2127 -0.382654,0.44119 -0.366653,0.29854 0.02447,-0.21856 0.510997,-1.96761 0.513203,-1.84513 z m -0.211172,1.77477 c 0.144423,-0.16228 0.604275,-0.41298 0.70702,-0.38545 0.08568,0.023 0.430453,-0.3889 0.6263,-0.74814 0.08491,-0.15579 0.142814,-0.23188 0.128639,-0.16912 -0.03871,0.17142 -0.237607,0.49211 -0.547135,0.88217 -0.367312,0.46287 -0.531959,0.59268 -0.833103,0.65685 -0.280905,0.0599 -0.298922,0.008 -0.08172,-0.23631 z m 0.512102,-1.10024 c 0.152549,-0.14543 0.18417,-0.2246 0.294775,-0.73797 0.06816,-0.31629 0.125741,-0.64266 0.128071,-0.72525 0.0023,-0.0826 0.01319,-0.0252 0.02356,0.12735 0.01064,0.15262 -0.02773,0.49636 -0.08533,0.76384 -0.05759,0.26747 -0.107313,0.56001 -0.110436,0.65009 -0.0078,0.2221 -0.120536,0.40957 -0.305365,0.50773 -0.116327,0.0618 -0.159972,0.0615 -0.179603,-0.001 -0.04706,-0.15007 0.06086,-0.41922 0.234408,-0.58471 z m 1.088372,-0.54242 c -3.82e-4,0.0588 -0.02181,0.13473 -0.04739,0.16885 -0.02571,0.0341 -0.02541,-0.014 7.6e-4,-0.10685 0.0263,-0.0928 0.04715,-0.12075 0.04677,-0.062 z"
       id="path826"
       inkscape:connector-curvature="0"
       sodipodi:nodetypes="csccssccccccscsccccccsccccccsccccsccccscccccccccsccccccccccscccccccccsssscccccccccccscccsccccccscscccccccccsccccccsccscscsccsscccsccccccsccscccccccccccccccccccccscccccccccccscscscsscscccccccscccccccccccccccccsccccccccccccccccccccccccscccccccsccccccccccsccccccccccccsccccccccccccccccccccccccccscccccccccccccccccccc" />
    <path
       sodipodi:nodetypes="csccssccccccscsccccccsccccccsccccsccccscccccccccsccccccccccscccccccccsssscccccccccccscccsccccccscscccccccccsccccccsccscscsccsscccsccccccsccscccccccccccccccccccccscccccccccccscscscsscscccccccscccccccccccccccccsccccccccccccccccccccccccscccccccsccccccccccsccccccccccccsccccccccccccccccccccccccccscccccccccccccccccccc"
       inkscape:connector-curvature="0"
       id="path828"
       d="m 37.242333,197.18435 c -0.18031,-0.0829 -0.52534,-0.2272 -0.766726,-0.32067 -0.241386,-0.0935 -0.45601,-0.18303 -0.476943,-0.19903 -0.02094,-0.016 -0.111336,-0.0485 -0.200909,-0.0723 -0.08957,-0.0238 -0.392624,-0.11304 -0.673453,-0.19843 -0.280828,-0.0854 -0.503893,-0.13023 -0.495693,-0.0996 0.0082,0.0306 0.204649,0.10615 0.436558,0.16787 0.231902,0.0617 0.415536,0.12282 0.408065,0.13575 -0.04885,0.0846 -1.191469,0.11087 -1.678365,0.0385 -0.534833,-0.0794 -0.575302,-0.0772 -0.64862,0.0364 -0.09801,0.15176 -0.08413,0.2084 0.05063,0.20764 0.05815,-3.6e-4 -0.554225,0.17877 -1.360842,0.39808 -2.238518,0.60862 -3.701508,0.87463 -5.106836,0.92856 -0.909053,0.0349 -1.33316,0.0176 -1.311834,-0.0534 0.01027,-0.0343 0.18202,-0.20118 0.381632,-0.37098 0.199613,-0.1698 0.471758,-0.47906 0.604759,-0.68723 0.208504,-0.32635 0.22585,-0.3803 0.125891,-0.39152 -0.260928,-0.0293 -0.752271,0.30472 -0.92451,0.62854 -0.04874,0.0916 -0.101977,0.26569 -0.1183,0.38678 -0.04171,0.30945 -0.168344,0.48803 -0.340499,0.48018 -0.134002,-0.006 -0.132749,-0.0155 0.03621,-0.27235 0.169268,-0.25728 0.372957,-0.7126 0.352665,-0.78833 -0.02218,-0.0828 -0.285153,0.0461 -0.522421,0.25586 -0.164126,0.14515 -0.276559,0.30751 -0.321566,0.46439 -0.03806,0.13267 -0.07342,0.25187 -0.07858,0.26492 -0.0052,0.013 -0.04124,0.0141 -0.08026,0.002 -0.04828,-0.0145 -0.05408,-0.0674 -0.01823,-0.16593 0.08897,-0.24433 0.04093,-0.29341 -0.162516,-0.16598 -0.364135,0.22809 -0.615153,0.76189 -0.521913,1.10986 0.02061,0.0769 0.0099,0.17871 -0.02374,0.22624 -0.107505,0.15178 -0.534451,1.1169 -0.487127,1.10116 0.02506,-0.008 0.120293,-0.18112 0.211685,-0.384 0.09139,-0.20287 0.23443,-0.48207 0.317874,-0.62045 0.366481,-0.60774 0.634018,-0.99883 0.69433,-1.01499 0.174047,-0.0466 0.08423,0.24153 -0.257692,0.82676 -0.207019,0.35433 -0.426572,0.7666 -0.487898,0.91617 -0.06132,0.14957 0.01993,0.024 0.180586,-0.27911 0.546612,-1.03124 0.985708,-1.55811 1.160972,-1.39305 0.02227,0.0209 -0.113054,0.26026 -0.300646,0.53182 -0.187591,0.27156 -0.396168,0.62541 -0.463497,0.78635 -0.09929,0.23731 -0.06736,0.20149 0.168991,-0.18957 0.479324,-0.79309 0.716607,-1.0978 0.85322,-1.09566 2.219824,0.0349 3.106592,-0.0913 6.179106,-0.87911 l 2.038513,-0.52269 0.577807,0.0636 c 0.802327,0.0883 1.422564,0.22252 1.97434,0.42723 l 0.470371,0.17451 -0.438259,-0.24238 c -0.241039,-0.1333 -0.683594,-0.31555 -0.983462,-0.405 -0.589061,-0.17569 -0.587774,-0.18311 0.04102,-0.23638 0.47467,-0.0403 0.626477,-0.003 1.61835,0.39727 0.746888,0.30137 0.91545,0.34326 0.367525,0.0913 z m -3.278644,-1.05777 c -0.184176,-0.0804 -0.496196,-0.12095 -0.512531,-0.0665 -0.0095,0.0315 0.12345,0.076 0.295364,0.0988 0.31825,0.0422 0.370196,0.0346 0.217166,-0.0323 z m -1.170094,-0.22343 c -1.522263,-0.21225 -3.221499,-0.12077 -4.766664,0.25661 l -0.965576,0.23583 0.803929,-0.16156 c 1.609087,-0.32335 3.033922,-0.41232 4.430886,-0.27668 0.380845,0.037 0.70378,0.0476 0.717631,0.0236 0.01387,-0.024 -0.08522,-0.059 -0.220207,-0.0778 z m -0.185879,0.58295 c -1.309314,-0.12527 -2.888705,0.0289 -4.290322,0.41872 l -0.535028,0.1488 1.115331,-0.12862 c 1.429145,-0.16481 2.119562,-0.19551 3.10977,-0.13827 0.439497,0.0254 0.848369,0.0523 0.908611,0.0597 0.09,0.0111 0.101349,-0.017 0.06362,-0.15781 -0.04154,-0.15505 -0.07702,-0.17434 -0.371985,-0.20257 z m -6.322075,-0.10617 c -0.481804,-0.22608 -0.793764,-0.1969 -1.933434,0.18086 -0.600619,0.19908 -1.042461,0.38384 -1.459179,0.61018 -0.328733,0.17854 -0.585278,0.33179 -0.570101,0.34055 0.01514,0.009 0.288301,-0.12178 0.606954,-0.29009 0.318646,-0.16831 0.830738,-0.39073 1.137981,-0.49425 l 0.558626,-0.18823 0.293227,0.11208 c 0.161269,0.0617 0.430857,0.11579 0.599085,0.12031 0.335203,0.009 1.027561,-0.15238 1.005581,-0.23441 -0.0076,-0.0283 -0.115013,-0.099 -0.23874,-0.157 z m -1.162134,0.46598 c -0.158465,-0.0303 -0.396085,-0.0412 -0.528036,-0.0242 -0.247036,0.0319 -0.954458,0.34644 -1.695989,0.75404 -0.232083,0.12757 -0.458961,0.24636 -0.504171,0.26395 -0.04523,0.0176 -0.09107,0.0497 -0.101905,0.0714 -0.01085,0.0217 -0.163536,0.1411 -0.339325,0.26545 -0.17579,0.12435 -0.306877,0.23344 -0.291302,0.24243 0.01556,0.009 0.191798,-0.0996 0.39162,-0.24124 0.317781,-0.22532 0.386826,-0.25451 0.551052,-0.23288 0.103258,0.0136 0.192119,0.041 0.197462,0.061 0.0053,0.0199 -0.113156,0.10258 -0.263324,0.18365 -0.258545,0.13957 -1.39664,1.07426 -1.380661,1.13389 0.0041,0.0154 0.212831,-0.14578 0.463801,-0.35817 0.503785,-0.42635 1.030853,-0.79107 1.225321,-0.84789 0.146006,-0.0427 0.694862,-0.0398 0.885069,0.005 0.07145,0.0167 0.163058,0.0205 0.203622,0.008 0.04057,-0.0121 0.0028,-0.0396 -0.08385,-0.0612 -0.156779,-0.039 -0.156508,-0.0398 0.05395,-0.13745 0.116342,-0.054 0.283909,-0.16503 0.372381,-0.24671 l 0.160853,-0.1485 -0.178431,-0.03 c -0.313756,-0.0528 -0.749646,0.0493 -1.063799,0.24915 -0.24812,0.15784 -0.317243,0.18016 -0.488041,0.15768 l -0.19898,-0.0262 0.183306,-0.12409 c 0.100819,-0.0682 0.367196,-0.20805 0.591953,-0.31065 0.388739,-0.17748 0.423118,-0.18377 0.705819,-0.12927 0.163452,0.0315 0.418466,0.0397 0.566697,0.0182 0.287262,-0.0416 0.886933,-0.31392 0.865718,-0.3931 -0.007,-0.0261 -0.142363,-0.0722 -0.300828,-0.10255 z m -1.551131,1.62643 c -0.14159,0.038 -0.438223,0.465 -0.479535,0.69038 -0.02255,0.12311 -0.02244,0.29319 2.72e-4,0.37795 0.02307,0.0861 -0.01339,0.29885 -0.08257,0.48197 -0.06811,0.18033 -0.101405,0.32185 -0.07398,0.31451 0.02741,-0.007 0.07661,-0.0954 0.109289,-0.19571 0.03267,-0.10028 0.163497,-0.37362 0.290713,-0.60741 0.210835,-0.38746 0.367274,-0.87593 0.327759,-1.0234 -0.0087,-0.0323 -0.05001,-0.0495 -0.09196,-0.0383 z m -0.182605,-0.21324 c -0.05957,-0.006 -0.239611,0.024 -0.400031,0.0673 -0.237388,0.064 -0.410433,0.17818 -0.929754,0.61313 -0.540655,0.45283 -1.425328,1.36335 -1.403564,1.44456 0.0084,0.0315 0.06473,-0.0262 0.391501,-0.40067 0.146248,-0.16761 0.44598,-0.46024 0.66608,-0.65027 0.368268,-0.31797 0.427153,-0.34981 0.738654,-0.39933 0.394486,-0.0627 0.738275,-0.24719 0.920365,-0.49389 0.10932,-0.1481 0.11143,-0.17093 0.01672,-0.18086 z m -0.60381,1.02912 c -0.127366,0.0341 -0.385075,0.5719 -0.392019,0.81804 -0.0161,0.57087 0.302547,0.34603 0.4353,-0.30716 0.06769,-0.33309 0.05051,-0.53601 -0.04328,-0.51088 z m -0.194359,-0.15135 c -0.06325,-0.007 -0.240815,0.0513 -0.394624,0.12876 -0.34362,0.17303 -1.243005,1.17052 -1.651913,1.83209 l -0.274394,0.44396 0.362164,-0.50856 c 0.505474,-0.7098 0.911834,-1.12544 1.114085,-1.13953 0.228704,-0.0159 0.634396,-0.28219 0.809636,-0.53135 0.133243,-0.18944 0.137163,-0.21464 0.03505,-0.22537 z m -0.717267,-1.62737 c -0.21928,-0.32912 -0.531511,-0.62003 -0.835901,-0.77882 -0.224433,-0.11708 -0.980958,-0.76443 -1.406334,-1.20339 -0.163558,-0.16878 -0.292333,-0.28688 -0.28617,-0.26247 0.02271,0.0901 0.481623,0.56618 0.968657,1.00501 0.325533,0.29332 0.501344,0.49222 0.5018,0.5677 0.0012,0.20075 0.24592,0.55031 0.500579,0.71508 0.195241,0.12633 0.8053,0.34686 0.76899,0.27799 -0.0046,-0.009 -0.100066,-0.15365 -0.211621,-0.3211 z m -0.185728,0.31997 c -0.407496,-0.0835 -0.902782,0.009 -1.200602,0.22477 -0.220517,0.15965 -0.229046,0.161 -0.796169,0.12626 -0.315293,-0.0193 -0.876977,-0.10146 -1.248182,-0.18255 -0.371206,-0.0811 -0.613415,-0.12115 -0.538245,-0.089 0.247841,0.10587 1.507683,0.34544 1.961393,0.37296 0.244961,0.0148 0.604921,0.0406 0.799912,0.0572 0.430107,0.0366 0.882707,-0.078 1.141504,-0.28905 l 0.192084,-0.15663 z m 0.992563,3.12075 c -0.08046,0.23146 -0.08926,0.35336 -0.01337,0.18513 0.04268,-0.0947 0.071,-0.19754 0.0629,-0.22866 -0.0081,-0.0311 -0.03039,-0.0115 -0.04952,0.0435 z m -0.546493,-0.7613 c -0.0776,0.0208 -0.25911,0.29668 -0.312801,0.47544 -0.06322,0.21049 0.01313,0.69413 0.105666,0.66934 0.113782,-0.0305 0.124297,-0.18245 0.03008,-0.4346 -0.101624,-0.27204 -0.101585,-0.27243 0.06839,-0.31797 0.145899,-0.0391 0.167237,-0.0707 0.149634,-0.22164 -0.0113,-0.0968 -0.02971,-0.17359 -0.04072,-0.17064 z m 0.20351,0.82246 c -0.06914,0.0734 -0.114282,0.30342 -0.0565,0.28795 0.02714,-0.007 0.06161,-0.0863 0.07655,-0.17566 0.01553,-0.0928 0.0069,-0.14093 -0.02008,-0.11228 z m -0.533368,-0.85511 c -0.0958,0.0257 -0.241422,0.10795 -0.323611,0.18286 -0.200685,0.18289 -0.80644,1.0814 -1.004621,1.49014 -0.101782,0.20992 -0.02476,0.11216 0.212377,-0.26959 0.204644,-0.32943 0.397609,-0.6058 0.428818,-0.61416 0.03121,-0.008 0.08636,-0.0665 0.122557,-0.1292 0.04447,-0.077 0.122435,-0.11764 0.240606,-0.12526 0.191097,-0.0124 0.416312,-0.23174 0.468922,-0.45683 0.02583,-0.11061 0.0095,-0.11939 -0.145048,-0.078 z m -1.015606,-3.02598 c -0.189275,-0.29652 -0.392075,-0.50532 -0.667424,-0.68713 -0.244601,-0.16151 -0.570536,-0.47536 -1.088933,-1.04859 -0.158487,-0.17524 -0.254727,-0.25951 -0.213872,-0.18724 0.04088,0.0723 0.300211,0.37513 0.576344,0.67305 0.410053,0.4424 0.515604,0.59155 0.576,0.81391 0.09062,0.33287 0.35614,0.62096 0.673498,0.73009 0.363745,0.12508 0.384702,0.0824 0.144387,-0.29409 z m -0.08256,0.43132 c -0.333956,-0.12197 -0.636619,-0.10612 -1.090795,0.0571 -0.408435,0.14678 -0.436599,0.14843 -0.928928,0.0541 -0.279246,-0.0535 -0.762586,-0.18641 -1.074074,-0.29541 -0.311495,-0.10898 -0.523329,-0.16767 -0.470742,-0.13043 0.205469,0.14553 1.228039,0.4487 2.01701,0.598 0.772722,0.14621 0.856275,0.14973 1.236362,0.0521 0.489098,-0.12569 0.58937,-0.23381 0.311167,-0.33541 z m 0.724317,3.68149 c -0.211007,-0.021 -0.299143,0.0975 -0.292254,0.39274 0.0023,0.0992 -0.03794,0.30104 -0.08946,0.44847 -0.111649,0.31949 -0.323134,1.27058 -0.300272,1.3504 0.0089,0.0309 0.07924,-0.21822 0.156426,-0.55363 0.165059,-0.71728 0.286856,-1.03657 0.436892,-1.14531 0.10224,-0.0741 0.210814,-0.25031 0.250425,-0.4064 0.0096,-0.0376 -0.06323,-0.0765 -0.161754,-0.0863 z m -1.691172,-4.63065 c -0.07579,-0.1196 -0.259215,-0.31554 -0.407632,-0.43541 -0.258353,-0.20868 -0.660135,-0.67676 -1.047168,-1.21997 -0.09956,-0.13975 -0.145944,-0.18179 -0.103069,-0.0934 0.0429,0.0884 0.249856,0.38692 0.459951,0.66347 0.30114,0.39638 0.39621,0.56574 0.449216,0.80022 0.0367,0.16365 0.112704,0.34753 0.168351,0.40875 0.126783,0.13965 0.44752,0.34344 0.596817,0.37921 0.09569,0.0229 0.106079,0.003 0.06725,-0.12913 -0.02518,-0.086 -0.107901,-0.25411 -0.183698,-0.37371 z m -0.08796,0.56983 c -0.312078,-0.14221 -0.691967,-0.1565 -1.024367,-0.0385 -0.333561,0.11838 -0.937038,-0.0514 -1.778853,-0.5006 -0.448358,-0.23923 -0.559338,-0.28252 -0.368049,-0.14357 0.484942,0.35225 1.337638,0.69551 2.394856,0.96408 0.315486,0.0801 0.610962,0.0564 0.854953,-0.0688 l 0.182604,-0.0936 z m -0.882109,-1.12881 c -0.04838,-0.0781 -0.169874,-0.21921 -0.270059,-0.31356 -0.100181,-0.0944 -0.311168,-0.37179 -0.468857,-0.61653 -0.15769,-0.24476 -0.276896,-0.40101 -0.264899,-0.34725 0.01225,0.0537 0.131298,0.26887 0.265158,0.47801 0.177757,0.27776 0.239345,0.42091 0.228488,0.53111 -0.0298,0.30243 0.320105,0.79399 0.614089,0.86271 0.112813,0.0264 0.1174,0.008 0.05366,-0.21183 -0.03832,-0.13236 -0.109264,-0.30454 -0.157572,-0.38266 z m -0.07612,0.66173 c -0.330467,-0.1788 -0.641797,-0.23121 -0.938985,-0.15807 -0.24083,0.0592 -0.288542,0.044 -0.832087,-0.26675 -0.317131,-0.18129 -0.669975,-0.39992 -0.784098,-0.48584 -0.151047,-0.1137 -0.136677,-0.0928 0.05277,0.0766 0.458203,0.40985 1.572141,0.99679 2.040833,1.07531 0.147389,0.0247 0.342747,0.01 0.473573,-0.0361 l 0.222695,-0.0782 z m 1.635589,5.47038 c -0.01174,0.003 -0.0443,0.0595 -0.07233,0.12529 -0.04624,0.10837 -0.0437,0.10984 0.02705,0.0156 0.07428,-0.099 0.09177,-0.15334 0.0453,-0.14089 z M 17.6418,194.47886 c -0.0052,0.043 0.01175,0.10653 0.03782,0.14115 0.02608,0.0346 0.03036,-5.8e-4 0.0096,-0.0782 -0.0208,-0.0776 -0.04211,-0.10597 -0.04739,-0.063 z m 0.169536,0.84718 c -0.222991,-0.30848 -0.364461,-0.58104 -0.55151,-1.06254 -0.16314,-0.41999 -0.16253,-0.41505 0.01392,0.1173 0.101348,0.30568 0.198055,0.63378 0.214948,0.72911 0.114857,0.64738 0.1673,0.76361 0.407362,0.90218 l 0.232667,0.13431 -0.08559,-0.30874 c -0.04694,-0.16984 -0.151363,-0.40004 -0.231981,-0.51158 z m -0.170151,0.69908 c -0.2888,-0.17367 -0.413366,-0.21242 -0.615484,-0.19148 -0.216696,0.0224 -0.296948,-0.008 -0.553933,-0.2081 -0.165285,-0.12889 -0.413063,-0.35144 -0.55062,-0.49456 -0.137551,-0.14312 -0.244707,-0.23824 -0.238111,-0.21139 0.02387,0.0971 0.534916,0.60633 0.807132,0.80424 0.153162,0.11136 0.374003,0.27494 0.490749,0.36352 0.252769,0.19178 0.672417,0.29401 0.876048,0.21342 0.145515,-0.0576 0.144343,-0.0591 -0.215781,-0.27565 z m -0.886747,-2.48931 c -0.0014,0.0757 0.0373,0.29629 0.08598,0.49024 0.0599,0.23955 0.06991,0.43618 0.03061,0.61296 -0.04196,0.18883 -0.03374,0.31059 0.02996,0.44339 0.10202,0.2127 0.382654,0.44119 0.366653,0.29854 -0.02448,-0.21856 -0.510997,-1.96761 -0.513203,-1.84513 z m 0.211172,1.77477 c -0.144422,-0.16228 -0.604275,-0.41298 -0.70702,-0.38545 -0.08568,0.023 -0.430453,-0.3889 -0.6263,-0.74814 -0.08491,-0.15579 -0.142814,-0.23188 -0.128639,-0.16912 0.03871,0.17142 0.237607,0.49211 0.547135,0.88217 0.367312,0.46287 0.531959,0.59268 0.833103,0.65685 0.280905,0.0599 0.298922,0.008 0.08172,-0.23631 z m -0.512102,-1.10024 c -0.152549,-0.14543 -0.184169,-0.2246 -0.294775,-0.73797 -0.06816,-0.31629 -0.125741,-0.64266 -0.128071,-0.72525 -0.0023,-0.0826 -0.01319,-0.0252 -0.02356,0.12735 -0.01064,0.15262 0.02773,0.49636 0.08533,0.76384 0.05759,0.26747 0.107313,0.56001 0.110436,0.65009 0.0078,0.2221 0.120536,0.40957 0.305365,0.50773 0.116327,0.0618 0.159972,0.0615 0.179604,-0.001 0.04706,-0.15007 -0.06087,-0.41922 -0.234409,-0.58471 z m -1.088372,-0.54242 c 3.82e-4,0.0588 0.02181,0.13473 0.04739,0.16885 0.02571,0.0341 0.02541,-0.014 -7.6e-4,-0.10685 -0.0263,-0.0928 -0.04715,-0.12075 -0.04677,-0.062 z"
       style="fill:#ffffff;fill-opacity:0.78431374;stroke-width:0.05845371" />
  </g>
</svg>
